<?xml version="1.0" encoding="UTF-8"?>
<svg xmlns="http://www.w3.org/2000/svg" xmlns:xlink="http://www.w3.org/1999/xlink" width="1100pt" height="800pt" viewBox="0 0 1100 800" version="1.1">
<g id="surface1">
<rect x="0" y="0" width="1100" height="800" style="fill:rgb(100%,100%,100%);fill-opacity:1;stroke:none;"/>
<path style=" stroke:none;fill-rule:nonzero;fill:rgb(94.53125%,94.921875%,94.921875%);fill-opacity:1;" d="M 593.738281 684.863281 C 627.6875 684.972656 661.640625 684.929688 695.589844 684.617188 C 768.320313 683.949219 841.058594 682.089844 913.667969 677.820313 C 945.105469 675.972656 1056.921875 677.621094 1003.980469 611.335938 C 986.09375 588.953125 947.910156 580.171875 922.839844 579.757813 C 895.359375 579.304688 868.667969 581.757813 841.152344 583.195313 C 815.582031 584.535156 790.078125 586.441406 764.464844 586.375 C 712.15625 586.238281 659.839844 586.375 607.625 590.574219 C 558.570313 594.523438 509.390625 593.167969 460.226563 593.167969 C 409.808594 593.167969 359.734375 592.691406 309.683594 584.636719 C 287.875 581.128906 265.65625 579.898438 243.738281 577.441406 C 224.109375 575.238281 205.246094 577.484375 185.695313 579.519531 C 169.277344 581.230469 152.96875 586.296875 138.054688 594.863281 C 126.25 601.644531 105.199219 622.714844 101.582031 638.902344 C 91.429688 684.285156 244.621094 683.195313 268.144531 683.09375 C 376.679688 682.621094 485.207031 684.515625 593.738281 684.863281 "/>
<path style=" stroke:none;fill-rule:nonzero;fill:rgb(72.459412%,44.700623%,38.426208%);fill-opacity:1;" d="M 338.058594 250.753906 L 343.117188 246.472656 L 349.675781 248.5625 L 353.4375 254.039063 L 351.71875 258.714844 L 346.394531 261.800781 L 348.417969 262.339844 L 348.046875 263.984375 L 339.6875 267.792969 C 337.675781 265.699219 330.898438 264.089844 329.820313 262.96875 L 335.414063 258.164063 L 338.058594 250.753906 "/>
<path style=" stroke:none;fill-rule:nonzero;fill:rgb(28.24707%,30.979919%,35.693359%);fill-opacity:1;" d="M 173.433594 635.335938 L 173.238281 637.246094 L 172.589844 643.585938 L 185.214844 651.285156 L 192.503906 645.632813 L 186.515625 638.609375 L 185.957031 638.269531 L 185.664063 639 L 173.433594 635.335938 "/>
<path style=" stroke:none;fill-rule:nonzero;fill:rgb(55.664063%,76.5625%,79.6875%);fill-opacity:1;" d="M 226.007813 498.8125 C 211.695313 499.753906 198.417969 500.144531 187.984375 500.28125 L 188.355469 549.207031 L 172.753906 635.132813 L 173.433594 635.335938 L 185.664063 639 L 185.957031 638.269531 L 226.964844 536.96875 L 228.394531 516.3125 L 226.007813 498.8125 "/>
<path style=" stroke:none;fill-rule:nonzero;fill:rgb(55.664063%,76.5625%,79.6875%);fill-opacity:1;" d="M 220.570313 498.8125 L 228.394531 516.3125 L 232.058594 543.171875 L 236.234375 640.097656 L 236.308594 640.101563 L 236.359375 638.699219 L 248.839844 639.078125 L 268.527344 536.171875 L 269.589844 494.128906 C 256.0625 496.289063 241.878906 497.714844 228.484375 498.644531 L 220.570313 498.8125 "/>
<path style=" stroke:none;fill-rule:nonzero;fill:rgb(28.24707%,30.979919%,35.693359%);fill-opacity:1;" d="M 249.699219 639.105469 L 248.839844 639.078125 L 236.359375 638.699219 L 236.308594 640.101563 L 236.121094 645.066406 L 249.222656 651.839844 L 256.128906 645.675781 L 249.699219 639.105469 "/>
<path style=" stroke:none;fill-rule:nonzero;fill:rgb(72.459412%,44.700623%,38.426208%);fill-opacity:1;" d="M 205.804688 287.324219 C 205.390625 286.273438 204.972656 285.21875 204.554688 284.164063 L 204.652344 284.097656 C 210.183594 279.902344 212.707031 272.601563 212.40625 265.695313 C 212.210938 261.191406 210.949219 256.835938 209.144531 252.683594 C 207.765625 250.308594 206.070313 248.132813 204.101563 246.265625 C 200.542969 242.894531 195.726563 240.214844 191.019531 240.378906 C 189.105469 240.441406 189.902344 241.933594 187.589844 240.757813 C 187.277344 240.597656 186.910156 240.269531 186.539063 239.863281 C 186.199219 240.234375 185.96875 240.496094 185.902344 240.5625 C 183.679688 242.875 181.226563 243.980469 178.5625 245.652344 C 174.515625 248.195313 172.339844 253.605469 173.308594 258.699219 C 173.710938 260.808594 174.597656 262.980469 174.089844 265 C 173.644531 266.765625 172.230469 267.980469 171.335938 269.511719 C 170.8125 270.40625 170.480469 271.425781 170.332031 272.488281 C 174.761719 280.53125 183.164063 287.003906 191.808594 287.796875 L 191.832031 287.894531 C 191.945313 288.402344 192.066406 288.914063 192.207031 289.414063 C 192.839844 291.628906 194.347656 293.972656 196.660156 294.136719 C 197.714844 294.210938 198.738281 293.808594 199.71875 293.410156 C 201.699219 292.609375 203.679688 291.8125 205.660156 291.011719 C 206.066406 290.847656 206.511719 290.640625 206.664063 290.234375 C 206.796875 289.875 206.65625 289.480469 206.515625 289.125 C 206.277344 288.523438 206.042969 287.925781 205.804688 287.324219 "/>
<path style=" stroke:none;fill-rule:nonzero;fill:rgb(23.143005%,27.050781%,35.301208%);fill-opacity:1;" d="M 248.4375 231.269531 C 243.753906 230.984375 239.613281 233.726563 235.808594 236.367188 C 235.132813 231.765625 230.699219 228.589844 226.449219 227.347656 C 222.199219 226.105469 217.726563 226.113281 213.566406 224.484375 C 208.570313 222.53125 203.636719 218.210938 198.675781 219.617188 C 194.210938 220.886719 191.421875 226.316406 188.644531 231.136719 L 188.425781 230.902344 C 186.289063 228.683594 183.957031 226.550781 181.203125 225.410156 C 172.296875 221.730469 173.316406 232.851563 166.472656 232.261719 C 164.820313 232.117188 163.421875 230.8125 161.863281 230.125 C 158.921875 228.828125 155.644531 229.855469 153.007813 231.457031 C 150.375 233.058594 148.050781 235.226563 145.21875 236.421875 C 142.699219 237.484375 139.855469 237.746094 137.507813 239.15625 C 133.984375 241.269531 134.707031 245.097656 134.078125 248.582031 C 133.386719 252.441406 132.324219 257.644531 130.238281 260.847656 C 128.734375 263.15625 126.40625 264.664063 124.453125 266.550781 C 122.503906 268.433594 120.824219 271.0625 121.242188 273.945313 C 121.636719 276.679688 123.804688 278.898438 124.425781 281.597656 C 125.28125 285.632813 124.839844 287.8125 126.640625 291.816406 C 127.566406 293.882813 128.589844 296.066406 130.402344 297.320313 C 132.789063 298.976563 135.828125 298.542969 138.445313 297.75 C 141.0625 296.957031 143.734375 295.859375 146.484375 296.398438 C 152.449219 297.566406 152.121094 303.464844 154.265625 308.089844 C 155.691406 311.171875 158.242188 313.511719 161.175781 314.878906 C 164.945313 316.632813 169.351563 316.78125 172.839844 314.835938 C 178.105469 311.898438 180.492188 305.070313 179.429688 298.773438 C 179.039063 296.484375 178.070313 294.386719 177.375 292.199219 C 177.109375 291.378906 176.886719 290.539063 176.746094 289.675781 C 176.265625 286.628906 177.453125 282.167969 174.355469 280.101563 C 173.601563 279.601563 172.691406 279.398438 171.996094 278.808594 C 171.433594 278.324219 171.0625 277.632813 170.800781 276.925781 C 170.265625 275.503906 170.121094 273.953125 170.332031 272.488281 C 170.480469 271.425781 170.8125 270.40625 171.335938 269.511719 C 172.230469 267.980469 173.644531 266.765625 174.089844 265 C 174.597656 262.980469 173.710938 260.808594 173.308594 258.699219 C 172.339844 253.605469 174.515625 248.195313 178.5625 245.652344 C 181.226563 243.980469 183.679688 242.875 185.902344 240.5625 C 185.96875 240.496094 186.199219 240.234375 186.539063 239.863281 C 186.910156 240.269531 187.277344 240.597656 187.589844 240.757813 C 189.902344 241.933594 189.105469 240.441406 191.019531 240.378906 C 195.726563 240.214844 200.542969 242.894531 204.101563 246.265625 C 206.070313 248.132813 207.765625 250.308594 209.144531 252.683594 C 211.605469 256.914063 213.0625 261.769531 213.214844 266.609375 C 213.433594 273.527344 209.847656 276.578125 213.140625 283.554688 C 213.871094 285.101563 214.773438 286.566406 215.808594 287.929688 C 218.636719 291.648438 222.476563 294.535156 226.726563 295.886719 C 227.210938 295.886719 227.6875 295.863281 228.167969 295.824219 C 230.566406 295.632813 232.886719 294.953125 235.019531 293.871094 C 237.144531 292.796875 239.085938 291.324219 240.726563 289.550781 C 243.191406 286.882813 244.988281 283.53125 245.753906 279.804688 C 246.171875 277.777344 246.371094 275.527344 247.703125 274.0625 C 248.777344 272.882813 250.414063 272.425781 251.511719 271.269531 C 256.082031 266.46875 247.359375 257.753906 249.324219 251.152344 C 250.5625 246.980469 255.695313 245.355469 256.8125 241.136719 C 258.058594 236.425781 253.117188 231.550781 248.4375 231.269531 "/>
<path style=" stroke:none;fill-rule:nonzero;fill:rgb(80.076599%,82.421875%,85.15625%);fill-opacity:1;" d="M 346.703125 265.195313 C 345.171875 264.917969 329.265625 260.40625 329.265625 260.40625 C 330.191406 260.554688 290.898438 289.398438 287.175781 291.644531 C 275.753906 298.535156 254.144531 290.125 240.726563 289.550781 C 239.085938 291.324219 237.144531 292.796875 235.019531 293.871094 C 232.886719 294.953125 230.566406 295.632813 228.167969 295.824219 C 227.6875 295.863281 227.210938 295.886719 226.726563 295.886719 C 222.476563 294.535156 218.636719 291.648438 215.808594 287.929688 C 214.167969 287.546875 212.859375 287.269531 211.980469 287.074219 L 205.804688 287.324219 C 206.042969 287.925781 206.277344 288.523438 206.515625 289.125 C 206.65625 289.480469 206.796875 289.875 206.664063 290.234375 C 206.511719 290.640625 206.066406 290.847656 205.660156 291.011719 C 203.679688 291.8125 201.699219 292.609375 199.71875 293.410156 C 198.738281 293.808594 197.714844 294.210938 196.660156 294.136719 C 194.347656 293.972656 192.839844 291.628906 192.207031 289.414063 C 192.066406 288.914063 191.945313 288.402344 191.832031 287.894531 L 180.113281 288.367188 L 177.375 292.199219 C 178.070313 294.386719 179.039063 296.484375 179.429688 298.773438 C 180.492188 305.070313 178.105469 311.898438 172.839844 314.835938 C 169.351563 316.78125 164.945313 316.632813 161.175781 314.878906 L 158.742188 452.410156 L 170.242188 504.332031 C 170.242188 504.332031 178.511719 504.558594 191.300781 504.390625 C 201.167969 504.257813 213.726563 503.890625 227.257813 503.003906 C 228.035156 502.949219 228.816406 502.898438 229.605469 502.84375 C 242.269531 501.960938 255.683594 500.613281 268.480469 498.570313 C 273.410156 497.785156 278.253906 496.894531 282.921875 495.890625 C 282.921875 495.890625 294.925781 463.261719 277.675781 381.390625 C 274.964844 368.527344 271.214844 354.074219 267.574219 341.269531 C 279.078125 331.402344 309.894531 314.347656 319.960938 303.019531 C 330.984375 290.613281 346.804688 265.214844 347.152344 265.277344 C 347.148438 265.277344 346.984375 265.246094 346.703125 265.195313 "/>
<path style=" stroke:none;fill-rule:nonzero;fill:rgb(49.804688%,77.34375%,63.867188%);fill-opacity:1;" d="M 866.378906 275.425781 L 839.492188 280.160156 L 791.8125 317.089844 L 728.152344 300.472656 L 720.777344 315.769531 L 779.964844 344.25 L 805.75 350.753906 L 839.253906 339.820313 L 866.378906 275.425781 "/>
<path style=" stroke:none;fill-rule:nonzero;fill:rgb(91.796875%,77.34375%,68.943787%);fill-opacity:1;" d="M 726.421875 310.480469 L 716.464844 315.464844 L 709.347656 314.660156 L 709.304688 312.234375 L 713.480469 310.566406 L 699.972656 307.640625 L 698.730469 301.121094 L 714.917969 297.277344 L 729.585938 301.546875 L 726.421875 310.480469 "/>
<path style=" stroke:none;fill-rule:nonzero;fill:rgb(23.143005%,27.050781%,35.301208%);fill-opacity:1;" d="M 836.582031 626.359375 L 824.027344 635.253906 L 819.84375 642.054688 C 819.84375 642.054688 824.550781 644.148438 827.164063 644.671875 C 829.78125 645.191406 850.183594 642.054688 850.183594 642.054688 L 850.183594 630.023438 L 836.582031 626.359375 "/>
<path style=" stroke:none;fill-rule:nonzero;fill:rgb(23.143005%,27.050781%,35.301208%);fill-opacity:1;" d="M 934.140625 630.148438 L 929.507813 638.574219 C 929.507813 638.574219 926.605469 649.226563 929.117188 648.496094 C 931.632813 647.765625 945.632813 645.332031 946.199219 643.53125 C 946.765625 641.734375 952.84375 634.519531 953.554688 633.226563 C 954.269531 631.929688 951.246094 623.253906 951.246094 623.253906 L 934.140625 630.148438 "/>
<path style=" stroke:none;fill-rule:nonzero;fill:rgb(80.076599%,82.421875%,85.15625%);fill-opacity:1;" d="M 848.269531 431.800781 L 888.808594 552.820313 L 934.140625 630.148438 L 951.722656 625.039063 L 921.667969 536.847656 C 921.667969 536.847656 918.039063 448.253906 912.101563 422.191406 L 848.269531 431.800781 "/>
<path style=" stroke:none;fill-rule:nonzero;fill:rgb(80.076599%,82.421875%,85.15625%);fill-opacity:1;" d="M 816.179688 450.0625 L 831.875 630.023438 L 850.707031 630.023438 L 856.460938 537.949219 L 867.273438 456.4375 L 826.121094 408.214844 L 816.179688 450.0625 "/>
<path style=" stroke:none;fill-rule:nonzero;fill:rgb(49.804688%,77.34375%,63.867188%);fill-opacity:1;" d="M 815.578125 334.914063 C 817.523438 325.636719 818.292969 315.652344 822.886719 307.007813 C 827.480469 298.359375 836.160156 291.808594 842.855469 284.453125 C 845.695313 281.339844 848.726563 278.097656 852.941406 276.613281 C 855.835938 275.59375 859.023438 275.503906 862.140625 275.425781 C 871.585938 275.1875 881.03125 274.949219 890.480469 274.710938 C 893.925781 274.625 897.507813 274.558594 900.644531 275.804688 C 905.351563 277.667969 908.007813 282.003906 910.335938 286.046875 C 916.269531 296.371094 917.367188 307.824219 917.898438 319.492188 C 917.882813 319.605469 925.269531 466.074219 919.40625 463.324219 C 912.109375 459.898438 903.765625 458.078125 895.574219 456.804688 C 884.03125 454.957031 872.246094 453.78125 860.480469 453.488281 L 839.773438 454.886719 L 827.273438 454.886719 C 819.773438 455.617188 820.390625 457.871094 812.679688 457.402344 C 807.746094 457.101563 813.34375 345.542969 815.578125 334.914063 "/>
<path style=" stroke:none;fill-rule:nonzero;fill:rgb(91.796875%,77.34375%,68.943787%);fill-opacity:1;" d="M 869.84375 280.160156 C 874.53125 279.957031 879.21875 279.753906 883.90625 279.550781 C 884.160156 275.816406 884.113281 272.0625 883.769531 268.335938 C 887.730469 267.1875 892.335938 265.386719 893.238281 261.359375 C 893.523438 260.089844 893.375 258.769531 893.222656 257.480469 C 892.605469 252.144531 891.984375 246.808594 891.363281 241.472656 C 891.148438 239.625 890.917969 237.726563 890.011719 236.105469 C 888.417969 233.257813 885.097656 231.867188 881.921875 231.132813 C 873.816406 229.257813 864.796875 230.535156 858.152344 235.546875 C 856.386719 236.878906 854.765625 238.507813 853.902344 240.550781 C 852.578125 243.695313 853.238281 247.28125 853.921875 250.628906 C 854.554688 253.71875 855.183594 256.804688 855.8125 259.894531 C 856.539063 263.441406 857.644531 267.496094 860.945313 268.996094 C 862.695313 269.792969 864.820313 269.707031 866.386719 270.828125 C 869.144531 272.804688 868.523438 277.035156 869.84375 280.160156 "/>
<path style=" stroke:none;fill-rule:nonzero;fill:rgb(23.143005%,27.050781%,35.301208%);fill-opacity:1;" d="M 843.867188 212.34375 C 844.90625 212.15625 845.96875 211.9375 847.046875 211.46875 C 850.441406 209.992188 852.820313 207.027344 856.429688 205.640625 C 863.722656 202.832031 872.871094 203.238281 880.035156 206.253906 C 886.894531 209.136719 896.253906 210.246094 902.390625 214.121094 C 904.953125 215.742188 906.9375 218.15625 908.441406 220.789063 C 913.648438 229.90625 913.007813 242.046875 906.867188 250.5625 C 905.488281 252.472656 903.871094 254.199219 902.179688 255.839844 C 898.679688 259.234375 894.488281 263.4375 889.875 264.511719 C 889.988281 260.445313 894.402344 247.84375 891.46875 244.339844 C 887.574219 239.695313 879.9375 239.816406 874.464844 240.328125 C 867.941406 240.9375 862.574219 238.847656 856.070313 239.171875 C 852.757813 239.335938 849.011719 240.003906 846.472656 237.871094 C 843.535156 235.402344 837.324219 227.570313 835.855469 224.132813 C 834.5625 221.125 835.425781 217.417969 837.664063 215.03125 C 839.597656 212.972656 841.6875 212.730469 843.867188 212.34375 "/>
<path style=" stroke:none;fill-rule:nonzero;fill:rgb(100%,100%,100%);fill-opacity:1;" d="M 871.109375 280.046875 C 870.617188 283.480469 869.566406 287.371094 869.566406 287.371094 C 869.566406 287.371094 843.445313 362.621094 840.960938 368.632813 C 840.40625 369.972656 840.132813 371.410156 840.132813 372.863281 L 846.128906 390.476563 L 858.03125 375.757813 L 874.179688 291.4375 L 878.101563 288.070313 L 879.480469 279.523438 L 871.109375 280.046875 "/>
<path style=" stroke:none;fill-rule:nonzero;fill:rgb(92.1875%,68.943787%,26.660156%);fill-opacity:1;" d="M 739.273438 576.179688 L 739.273438 517.691406 C 739.164063 517.433594 739.042969 517.175781 738.945313 516.902344 L 738.941406 469.007813 L 738.9375 441.503906 L 738.9375 440.457031 L 661.585938 440.464844 C 655.195313 437.613281 652.140625 429.472656 656.238281 422.902344 C 666.746094 406.050781 669.144531 385.210938 649.664063 373.746094 C 633.867188 364.453125 612.1875 370.421875 603.429688 386.539063 C 596.230469 399.785156 602.128906 411.460938 608.894531 423.3125 C 612.632813 429.859375 609.535156 437.6875 603.292969 440.472656 L 526.902344 440.480469 L 526.902344 441.523438 L 526.90625 471.3125 L 526.910156 516.121094 C 528.816406 523.824219 537.914063 527.972656 545.136719 523.472656 C 561.992188 512.96875 582.835938 510.578125 594.289063 530.0625 C 603.578125 545.863281 596.703125 567.175781 580.585938 575.929688 C 567.335938 583.121094 556.703125 577.324219 544.710938 570.816406 C 536.789063 566.515625 528.65625 569.800781 526.917969 578.207031 L 526.925781 652.515625 L 580.542969 652.507813 L 580.542969 652.679688 L 695.761719 652.679688 L 695.761719 652.496094 L 738.960938 652.492188 L 738.953125 576.9375 C 739.046875 576.679688 739.164063 576.429688 739.273438 576.179688 "/>
<path style=" stroke:none;fill-rule:nonzero;fill:rgb(27.830505%,30.589294%,73.242188%);fill-opacity:1;" d="M 594.335938 529.914063 C 582.871094 510.433594 562.03125 512.835938 545.179688 523.347656 C 537.070313 528.398438 526.570313 522.570313 526.570313 513.019531 L 526.570313 442.511719 L 451.355469 442.511719 C 444.578125 444.957031 441.046875 453.15625 444.945313 459.980469 C 451.71875 471.828125 457.621094 483.5 450.425781 496.753906 C 441.675781 512.871094 419.996094 518.851563 404.195313 509.5625 C 384.710938 498.113281 387.101563 477.269531 397.601563 460.410156 C 401.886719 453.53125 398.320313 444.960938 391.316406 442.511719 L 315.917969 442.511719 L 315.898438 441.929688 L 314.851563 441.929688 L 314.851563 440.644531 L 314.535156 440.644531 L 314.535156 652.679688 L 526.570313 652.679688 L 526.570313 581.253906 C 526.570313 571.914063 536.660156 566.058594 544.773438 570.6875 C 556.628906 577.453125 568.300781 583.351563 581.550781 576.148438 C 597.664063 567.390625 603.628906 545.707031 594.335938 529.914063 "/>
<path style=" stroke:none;fill-rule:nonzero;fill:rgb(82.8125%,30.589294%,30.589294%);fill-opacity:1;" d="M 763.753906 403.351563 L 832 207.191406 L 831.011719 206.851563 L 631.738281 137.519531 L 607.957031 205.875 C 604.820313 214.894531 592.984375 216.949219 586.988281 209.511719 C 574.527344 194.046875 555.632813 184.933594 538.402344 199.5625 C 524.4375 211.425781 522.945313 233.863281 535.285156 247.433594 C 545.433594 258.589844 558.394531 256.855469 571.8125 254.359375 C 580.996094 252.652344 588.605469 261.496094 585.535156 270.320313 L 562.066406 337.78125 L 632.246094 362.195313 C 639.894531 362.773438 646.578125 355.910156 645.070313 347.820313 C 642.570313 334.402344 640.824219 321.441406 651.976563 311.289063 C 665.535156 298.941406 687.976563 300.417969 699.847656 314.378906 C 714.488281 331.597656 705.386719 350.496094 689.925781 362.972656 C 683.308594 368.3125 684.230469 378.269531 690.882813 382.597656 L 733.203125 397.320313 L 761.335938 407.109375 L 762.324219 407.453125 L 763.753906 403.351563 "/>
<path style=" stroke:none;fill-rule:nonzero;fill:rgb(49.804688%,77.34375%,63.867188%);fill-opacity:1;" d="M 517.523438 337.089844 C 514.789063 328.949219 506.320313 326.667969 498.972656 331.886719 C 487.847656 339.789063 477.988281 346.820313 463.96875 341.265625 C 446.914063 334.511719 437.535156 314.179688 444.863281 297.378906 C 453.894531 276.660156 474.871094 276.53125 492.871094 284.9375 C 500.578125 288.535156 509.113281 283.328125 510.078125 275.449219 L 504.707031 230.964844 L 501.136719 201.394531 L 501.011719 200.355469 L 477.0625 203.246094 L 299.574219 224.695313 L 299.574219 224.679688 L 290.507813 225.773438 L 290.632813 226.8125 L 293.929688 254.117188 L 299.671875 301.667969 C 299.609375 301.949219 299.519531 302.21875 299.4375 302.492188 L 306.457031 360.558594 C 306.597656 360.792969 306.742188 361.023438 306.867188 361.269531 L 315.925781 436.277344 L 316.96875 436.152344 L 317.058594 436.730469 L 344.359375 433.429688 L 391.910156 427.683594 C 399.160156 429.269531 403.726563 437.355469 400.296875 444.699219 C 391.894531 462.695313 392.023438 483.675781 412.742188 492.707031 C 429.542969 500.027344 450.347656 491.492188 457.101563 474.4375 C 462.652344 460.417969 455.390625 449.542969 447.246094 438.589844 C 442.558594 432.285156 445.078125 423.71875 451.511719 420.480469 L 526.519531 411.414063 L 522.792969 380.585938 L 522.777344 380.589844 L 517.523438 337.089844 "/>
<path style=" stroke:none;fill-rule:nonzero;fill:rgb(72.459412%,44.700623%,38.426208%);fill-opacity:1;" d="M 297.972656 370.359375 L 297.742188 377.578125 L 310.480469 382.214844 L 317.820313 376.652344 L 317.828125 368.25 L 310.738281 367.855469 L 310.519531 366.007813 L 308.195313 364.515625 L 297.972656 370.359375 "/>
<path style=" stroke:none;fill-rule:nonzero;fill:rgb(80.076599%,82.421875%,85.15625%);fill-opacity:1;" d="M 260.675781 354.410156 L 299.984375 362.183594 C 299.984375 362.183594 297.71875 386.15625 297.742188 384.164063 C 297.765625 382.171875 246.125 379.832031 246.125 379.832031 L 260.675781 354.410156 "/>
<path style=" stroke:none;fill-rule:nonzero;fill:rgb(49.804688%,77.34375%,63.867188%);fill-opacity:1;" d="M 893.816406 301.125 L 845.644531 346.613281 L 774.179688 325.308594 L 769.066406 341.382813 L 847.609375 377.316406 L 868.277344 377.316406 L 911.949219 340.164063 L 893.816406 301.125 "/>
<path style=" stroke:none;fill-rule:nonzero;fill:rgb(91.796875%,77.34375%,68.943787%);fill-opacity:1;" d="M 769.527344 339.933594 L 757.089844 340.164063 L 749.492188 329.441406 L 768.800781 318.710938 L 774.179688 325.308594 L 769.527344 339.933594 "/>
</g>
</svg>
