<svg xmlns="http://www.w3.org/2000/svg" version="1.1" xmlns:xlink="http://www.w3.org/1999/xlink" xmlns:svgjs="http://svgjs.com/svgjs" width="1440" height="560" preserveAspectRatio="none" viewBox="0 0 1440 560"><g mask="url(&quot;#SvgjsMask1000&quot;)" fill="none"><rect width="1440" height="560" x="0" y="0" fill="#0e2a47"></rect><path d="M-45.61 358.87L-45.61 358.87" stroke="#132e65" stroke-width="1.5"></path><path d="M-45.61 358.87L62.06 337.51" stroke="#132e65" stroke-width="1.5"></path><path d="M-45.61 358.87L-64.65 502.36" stroke="#132e65" stroke-width="1.5"></path><path d="M-45.61 358.87L69.49 518.66" stroke="#132e65" stroke-width="1.5"></path><path d="M-45.61 358.87L255.03 397.44" stroke="#132e65" stroke-width="1.5"></path><path d="M-45.61 358.87L222.66 503.43" stroke="#132e65" stroke-width="1.5"></path><path d="M-45.61 358.87L59.42 651.48" stroke="#132e65" stroke-width="1.5"></path><path d="M-64.65 502.36L-64.65 502.36" stroke="#132e65" stroke-width="1.5"></path><path d="M-64.65 502.36L69.49 518.66" stroke="#132e65" stroke-width="1.5"></path><path d="M-64.65 502.36L-91.48 673.95" stroke="#132e65" stroke-width="1.5"></path><path d="M-64.65 502.36L59.42 651.48" stroke="#132e65" stroke-width="1.5"></path><path d="M-64.65 502.36L62.06 337.51" stroke="#132e65" stroke-width="1.5"></path><path d="M-91.48 673.95L-91.48 673.95" stroke="#132e65" stroke-width="1.5"></path><path d="M-91.48 673.95L59.42 651.48" stroke="#132e65" stroke-width="1.5"></path><path d="M-91.48 673.95L69.49 518.66" stroke="#132e65" stroke-width="1.5"></path><path d="M-91.48 673.95L-45.61 358.87" stroke="#132e65" stroke-width="1.5"></path><path d="M-91.48 673.95L238.02 682.13" stroke="#132e65" stroke-width="1.5"></path><path d="M62.06 337.51L62.06 337.51" stroke="#132e65" stroke-width="1.5"></path><path d="M62.06 337.51L69.49 518.66" stroke="#132e65" stroke-width="1.5"></path><path d="M69.49 518.66L69.49 518.66" stroke="#132e65" stroke-width="1.5"></path><path d="M69.49 518.66L59.42 651.48" stroke="#132e65" stroke-width="1.5"></path><path d="M69.49 518.66L222.66 503.43" stroke="#132e65" stroke-width="1.5"></path><path d="M59.42 651.48L59.42 651.48" stroke="#132e65" stroke-width="1.5"></path><path d="M59.42 651.48L238.02 682.13" stroke="#132e65" stroke-width="1.5"></path><path d="M59.42 651.48L222.66 503.43" stroke="#132e65" stroke-width="1.5"></path><path d="M59.42 651.48L358.06 655.36" stroke="#132e65" stroke-width="1.5"></path><path d="M255.03 397.44L255.03 397.44" stroke="#132e65" stroke-width="1.5"></path><path d="M255.03 397.44L222.66 503.43" stroke="#132e65" stroke-width="1.5"></path><path d="M255.03 397.44L371.37 342.61" stroke="#132e65" stroke-width="1.5"></path><path d="M222.66 503.43L222.66 503.43" stroke="#132e65" stroke-width="1.5"></path><path d="M222.66 503.43L383.07 502.96" stroke="#132e65" stroke-width="1.5"></path><path d="M222.66 503.43L238.02 682.13" stroke="#132e65" stroke-width="1.5"></path><path d="M238.02 682.13L238.02 682.13" stroke="#132e65" stroke-width="1.5"></path><path d="M238.02 682.13L358.06 655.36" stroke="#132e65" stroke-width="1.5"></path><path d="M238.02 682.13L383.07 502.96" stroke="#132e65" stroke-width="1.5"></path><path d="M238.02 682.13L69.49 518.66" stroke="#132e65" stroke-width="1.5"></path><path d="M238.02 682.13L488.1 690.35" stroke="#132e65" stroke-width="1.5"></path><path d="M371.37 342.61L371.37 342.61" stroke="#132e65" stroke-width="1.5"></path><path d="M383.07 502.96L383.07 502.96" stroke="#132e65" stroke-width="1.5"></path><path d="M383.07 502.96L358.06 655.36" stroke="#132e65" stroke-width="1.5"></path><path d="M383.07 502.96L371.37 342.61" stroke="#132e65" stroke-width="1.5"></path><path d="M358.06 655.36L358.06 655.36" stroke="#132e65" stroke-width="1.5"></path><path d="M358.06 655.36L488.1 690.35" stroke="#132e65" stroke-width="1.5"></path><path d="M555.93 342.47L555.93 342.47" stroke="#132e65" stroke-width="1.5"></path><path d="M555.93 342.47L681.23 407.14" stroke="#132e65" stroke-width="1.5"></path><path d="M555.93 342.47L557.66 520.96" stroke="#132e65" stroke-width="1.5"></path><path d="M557.66 520.96L557.66 520.96" stroke="#132e65" stroke-width="1.5"></path><path d="M557.66 520.96L668.12 496.37" stroke="#132e65" stroke-width="1.5"></path><path d="M557.66 520.96L681.23 407.14" stroke="#132e65" stroke-width="1.5"></path><path d="M488.1 690.35L488.1 690.35" stroke="#132e65" stroke-width="1.5"></path><path d="M488.1 690.35L557.66 520.96" stroke="#132e65" stroke-width="1.5"></path><path d="M693.09 209.51L693.09 209.51" stroke="#132e65" stroke-width="1.5"></path><path d="M693.09 209.51L807.05 198.36" stroke="#132e65" stroke-width="1.5"></path><path d="M693.09 209.51L555.93 342.47" stroke="#132e65" stroke-width="1.5"></path><path d="M693.09 209.51L681.23 407.14" stroke="#132e65" stroke-width="1.5"></path><path d="M693.09 209.51L839.65 389.87" stroke="#132e65" stroke-width="1.5"></path><path d="M681.23 407.14L681.23 407.14" stroke="#132e65" stroke-width="1.5"></path><path d="M681.23 407.14L668.12 496.37" stroke="#132e65" stroke-width="1.5"></path><path d="M681.23 407.14L839.65 389.87" stroke="#132e65" stroke-width="1.5"></path><path d="M668.12 496.37L668.12 496.37" stroke="#132e65" stroke-width="1.5"></path><path d="M668.12 496.37L820.92 489.7" stroke="#132e65" stroke-width="1.5"></path><path d="M668.12 496.37L555.93 342.47" stroke="#132e65" stroke-width="1.5"></path><path d="M668.12 496.37L839.65 389.87" stroke="#132e65" stroke-width="1.5"></path><path d="M668.12 496.37L680.35 698.77" stroke="#132e65" stroke-width="1.5"></path><path d="M680.35 698.77L680.35 698.77" stroke="#132e65" stroke-width="1.5"></path><path d="M680.35 698.77L812.1 709.6" stroke="#132e65" stroke-width="1.5"></path><path d="M680.35 698.77L488.1 690.35" stroke="#132e65" stroke-width="1.5"></path><path d="M680.35 698.77L557.66 520.96" stroke="#132e65" stroke-width="1.5"></path><path d="M680.35 698.77L820.92 489.7" stroke="#132e65" stroke-width="1.5"></path><path d="M807.05 198.36L807.05 198.36" stroke="#132e65" stroke-width="1.5"></path><path d="M839.65 389.87L839.65 389.87" stroke="#132e65" stroke-width="1.5"></path><path d="M839.65 389.87L820.92 489.7" stroke="#132e65" stroke-width="1.5"></path><path d="M839.65 389.87L939.49 360.09" stroke="#132e65" stroke-width="1.5"></path><path d="M820.92 489.7L820.92 489.7" stroke="#132e65" stroke-width="1.5"></path><path d="M812.1 709.6L812.1 709.6" stroke="#132e65" stroke-width="1.5"></path><path d="M953.16 -41L953.16 -41" stroke="#132e65" stroke-width="1.5"></path><path d="M953.16 -41L959.44 90.89" stroke="#132e65" stroke-width="1.5"></path><path d="M953.16 -41L1095.47 -110.62" stroke="#132e65" stroke-width="1.5"></path><path d="M953.16 -41L1150.49 63.45" stroke="#132e65" stroke-width="1.5"></path><path d="M953.16 -41L807.05 198.36" stroke="#132e65" stroke-width="1.5"></path><path d="M953.16 -41L970.42 252.7" stroke="#132e65" stroke-width="1.5"></path><path d="M959.44 90.89L959.44 90.89" stroke="#132e65" stroke-width="1.5"></path><path d="M959.44 90.89L970.42 252.7" stroke="#132e65" stroke-width="1.5"></path><path d="M959.44 90.89L807.05 198.36" stroke="#132e65" stroke-width="1.5"></path><path d="M959.44 90.89L1150.49 63.45" stroke="#132e65" stroke-width="1.5"></path><path d="M970.42 252.7L970.42 252.7" stroke="#132e65" stroke-width="1.5"></path><path d="M970.42 252.7L939.49 360.09" stroke="#132e65" stroke-width="1.5"></path><path d="M970.42 252.7L807.05 198.36" stroke="#132e65" stroke-width="1.5"></path><path d="M970.42 252.7L1142.8 215.9" stroke="#132e65" stroke-width="1.5"></path><path d="M939.49 360.09L939.49 360.09" stroke="#132e65" stroke-width="1.5"></path><path d="M1008.05 510.54L1008.05 510.54" stroke="#132e65" stroke-width="1.5"></path><path d="M1008.05 510.54L1112.98 530.39" stroke="#132e65" stroke-width="1.5"></path><path d="M1008.05 510.54L939.49 360.09" stroke="#132e65" stroke-width="1.5"></path><path d="M1008.05 510.54L820.92 489.7" stroke="#132e65" stroke-width="1.5"></path><path d="M950.77 704.02L950.77 704.02" stroke="#132e65" stroke-width="1.5"></path><path d="M950.77 704.02L812.1 709.6" stroke="#132e65" stroke-width="1.5"></path><path d="M950.77 704.02L1149.2 707.86" stroke="#132e65" stroke-width="1.5"></path><path d="M950.77 704.02L1008.05 510.54" stroke="#132e65" stroke-width="1.5"></path><path d="M1095.47 -110.62L1095.47 -110.62" stroke="#132e65" stroke-width="1.5"></path><path d="M1095.47 -110.62L1272.58 -106.82" stroke="#132e65" stroke-width="1.5"></path><path d="M1150.49 63.45L1150.49 63.45" stroke="#132e65" stroke-width="1.5"></path><path d="M1150.49 63.45L1258.83 86.61" stroke="#132e65" stroke-width="1.5"></path><path d="M1150.49 63.45L1142.8 215.9" stroke="#132e65" stroke-width="1.5"></path><path d="M1150.49 63.45L1095.47 -110.62" stroke="#132e65" stroke-width="1.5"></path><path d="M1150.49 63.45L1272.34 218.29" stroke="#132e65" stroke-width="1.5"></path><path d="M1150.49 63.45L1272.58 -106.82" stroke="#132e65" stroke-width="1.5"></path><path d="M1142.8 215.9L1142.8 215.9" stroke="#132e65" stroke-width="1.5"></path><path d="M1142.8 215.9L1272.34 218.29" stroke="#132e65" stroke-width="1.5"></path><path d="M1112.98 530.39L1112.98 530.39" stroke="#132e65" stroke-width="1.5"></path><path d="M1112.98 530.39L1253.89 512.35" stroke="#132e65" stroke-width="1.5"></path><path d="M1112.98 530.39L1149.2 707.86" stroke="#132e65" stroke-width="1.5"></path><path d="M1112.98 530.39L1244.51 700.4" stroke="#132e65" stroke-width="1.5"></path><path d="M1112.98 530.39L950.77 704.02" stroke="#132e65" stroke-width="1.5"></path><path d="M1149.2 707.86L1149.2 707.86" stroke="#132e65" stroke-width="1.5"></path><path d="M1149.2 707.86L1244.51 700.4" stroke="#132e65" stroke-width="1.5"></path><path d="M1272.58 -106.82L1272.58 -106.82" stroke="#132e65" stroke-width="1.5"></path><path d="M1272.58 -106.82L1422.48 -48.28" stroke="#132e65" stroke-width="1.5"></path><path d="M1258.83 86.61L1258.83 86.61" stroke="#132e65" stroke-width="1.5"></path><path d="M1258.83 86.61L1272.34 218.29" stroke="#132e65" stroke-width="1.5"></path><path d="M1258.83 86.61L1410.57 41.66" stroke="#132e65" stroke-width="1.5"></path><path d="M1272.34 218.29L1272.34 218.29" stroke="#132e65" stroke-width="1.5"></path><path d="M1272.34 218.29L1390.22 197.58" stroke="#132e65" stroke-width="1.5"></path><path d="M1272.34 218.29L1308.06 366.34" stroke="#132e65" stroke-width="1.5"></path><path d="M1308.06 366.34L1308.06 366.34" stroke="#132e65" stroke-width="1.5"></path><path d="M1308.06 366.34L1253.89 512.35" stroke="#132e65" stroke-width="1.5"></path><path d="M1308.06 366.34L1390.22 197.58" stroke="#132e65" stroke-width="1.5"></path><path d="M1308.06 366.34L1444.39 516.75" stroke="#132e65" stroke-width="1.5"></path><path d="M1253.89 512.35L1253.89 512.35" stroke="#132e65" stroke-width="1.5"></path><path d="M1253.89 512.35L1244.51 700.4" stroke="#132e65" stroke-width="1.5"></path><path d="M1253.89 512.35L1444.39 516.75" stroke="#132e65" stroke-width="1.5"></path><path d="M1253.89 512.35L1149.2 707.86" stroke="#132e65" stroke-width="1.5"></path><path d="M1244.51 700.4L1244.51 700.4" stroke="#132e65" stroke-width="1.5"></path><path d="M1244.51 700.4L1429.63 704.88" stroke="#132e65" stroke-width="1.5"></path><path d="M1422.48 -48.28L1422.48 -48.28" stroke="#132e65" stroke-width="1.5"></path><path d="M1422.48 -48.28L1410.57 41.66" stroke="#132e65" stroke-width="1.5"></path><path d="M1422.48 -48.28L1561.38 -85.54" stroke="#132e65" stroke-width="1.5"></path><path d="M1410.57 41.66L1410.57 41.66" stroke="#132e65" stroke-width="1.5"></path><path d="M1410.57 41.66L1539.59 105.53" stroke="#132e65" stroke-width="1.5"></path><path d="M1410.57 41.66L1390.22 197.58" stroke="#132e65" stroke-width="1.5"></path><path d="M1410.57 41.66L1561.38 -85.54" stroke="#132e65" stroke-width="1.5"></path><path d="M1410.57 41.66L1272.58 -106.82" stroke="#132e65" stroke-width="1.5"></path><path d="M1390.22 197.58L1390.22 197.58" stroke="#132e65" stroke-width="1.5"></path><path d="M1390.22 197.58L1258.83 86.61" stroke="#132e65" stroke-width="1.5"></path><path d="M1390.22 197.58L1539.59 105.53" stroke="#132e65" stroke-width="1.5"></path><path d="M1390.22 197.58L1587.71 214.67" stroke="#132e65" stroke-width="1.5"></path><path d="M1444.39 516.75L1444.39 516.75" stroke="#132e65" stroke-width="1.5"></path><path d="M1444.39 516.75L1607.64 556.82" stroke="#132e65" stroke-width="1.5"></path><path d="M1444.39 516.75L1429.63 704.88" stroke="#132e65" stroke-width="1.5"></path><path d="M1444.39 516.75L1558.3 359.3" stroke="#132e65" stroke-width="1.5"></path><path d="M1429.63 704.88L1429.63 704.88" stroke="#132e65" stroke-width="1.5"></path><path d="M1429.63 704.88L1607.64 556.82" stroke="#132e65" stroke-width="1.5"></path><path d="M1429.63 704.88L1253.89 512.35" stroke="#132e65" stroke-width="1.5"></path><path d="M1561.38 -85.54L1561.38 -85.54" stroke="#132e65" stroke-width="1.5"></path><path d="M1561.38 -85.54L1539.59 105.53" stroke="#132e65" stroke-width="1.5"></path><path d="M1561.38 -85.54L1272.58 -106.82" stroke="#132e65" stroke-width="1.5"></path><path d="M1561.38 -85.54L1587.71 214.67" stroke="#132e65" stroke-width="1.5"></path><path d="M1539.59 105.53L1539.59 105.53" stroke="#132e65" stroke-width="1.5"></path><path d="M1539.59 105.53L1587.71 214.67" stroke="#132e65" stroke-width="1.5"></path><path d="M1587.71 214.67L1587.71 214.67" stroke="#132e65" stroke-width="1.5"></path><path d="M1587.71 214.67L1558.3 359.3" stroke="#132e65" stroke-width="1.5"></path><path d="M1587.71 214.67L1410.57 41.66" stroke="#132e65" stroke-width="1.5"></path><path d="M1587.71 214.67L1422.48 -48.28" stroke="#132e65" stroke-width="1.5"></path><path d="M1558.3 359.3L1558.3 359.3" stroke="#132e65" stroke-width="1.5"></path><path d="M1558.3 359.3L1607.64 556.82" stroke="#132e65" stroke-width="1.5"></path><path d="M1558.3 359.3L1390.22 197.58" stroke="#132e65" stroke-width="1.5"></path><path d="M1607.64 556.82L1607.64 556.82" stroke="#132e65" stroke-width="1.5"></path><circle r="5" cx="-45.61" cy="358.87" fill="#132e65"></circle><circle r="5" cx="-64.65" cy="502.36" fill="#132e65"></circle><circle r="5" cx="-91.48" cy="673.95" fill="#132e65"></circle><circle r="5" cx="62.06" cy="337.51" fill="#132e65"></circle><circle r="5" cx="69.49" cy="518.66" fill="#132e65"></circle><circle r="5" cx="59.42" cy="651.48" fill="#132e65"></circle><circle r="5" cx="255.03" cy="397.44" fill="#132e65"></circle><circle r="5" cx="222.66" cy="503.43" fill="#132e65"></circle><circle r="5" cx="238.02" cy="682.13" fill="#132e65"></circle><circle r="5" cx="371.37" cy="342.61" fill="#132e65"></circle><circle r="5" cx="383.07" cy="502.96" fill="#132e65"></circle><circle r="5" cx="358.06" cy="655.36" fill="#132e65"></circle><circle r="5" cx="555.93" cy="342.47" fill="#132e65"></circle><circle r="5" cx="557.66" cy="520.96" fill="#132e65"></circle><circle r="5" cx="488.1" cy="690.35" fill="#132e65"></circle><circle r="5" cx="693.09" cy="209.51" fill="#132e65"></circle><circle r="5" cx="681.23" cy="407.14" fill="#132e65"></circle><circle r="5" cx="668.12" cy="496.37" fill="#132e65"></circle><circle r="5" cx="680.35" cy="698.77" fill="#132e65"></circle><circle r="5" cx="807.05" cy="198.36" fill="#132e65"></circle><circle r="5" cx="839.65" cy="389.87" fill="#132e65"></circle><circle r="5" cx="820.92" cy="489.7" fill="#132e65"></circle><circle r="5" cx="812.1" cy="709.6" fill="#132e65"></circle><circle r="5" cx="953.16" cy="-41" fill="#132e65"></circle><circle r="5" cx="959.44" cy="90.89" fill="#132e65"></circle><circle r="5" cx="970.42" cy="252.7" fill="#132e65"></circle><circle r="5" cx="939.49" cy="360.09" fill="#132e65"></circle><circle r="5" cx="1008.05" cy="510.54" fill="#132e65"></circle><circle r="5" cx="950.77" cy="704.02" fill="#132e65"></circle><circle r="5" cx="1095.47" cy="-110.62" fill="#132e65"></circle><circle r="5" cx="1150.49" cy="63.45" fill="#132e65"></circle><circle r="5" cx="1142.8" cy="215.9" fill="#132e65"></circle><circle r="5" cx="1112.98" cy="530.39" fill="#132e65"></circle><circle r="5" cx="1149.2" cy="707.86" fill="#132e65"></circle><circle r="5" cx="1272.58" cy="-106.82" fill="#132e65"></circle><circle r="5" cx="1258.83" cy="86.61" fill="#132e65"></circle><circle r="5" cx="1272.34" cy="218.29" fill="#132e65"></circle><circle r="5" cx="1308.06" cy="366.34" fill="#132e65"></circle><circle r="5" cx="1253.89" cy="512.35" fill="#132e65"></circle><circle r="5" cx="1244.51" cy="700.4" fill="#132e65"></circle><circle r="5" cx="1422.48" cy="-48.28" fill="#132e65"></circle><circle r="5" cx="1410.57" cy="41.66" fill="#132e65"></circle><circle r="5" cx="1390.22" cy="197.58" fill="#132e65"></circle><circle r="5" cx="1444.39" cy="516.75" fill="#132e65"></circle><circle r="5" cx="1429.63" cy="704.88" fill="#132e65"></circle><circle r="5" cx="1561.38" cy="-85.54" fill="#132e65"></circle><circle r="5" cx="1539.59" cy="105.53" fill="#132e65"></circle><circle r="5" cx="1587.71" cy="214.67" fill="#132e65"></circle><circle r="5" cx="1558.3" cy="359.3" fill="#132e65"></circle><circle r="5" cx="1607.64" cy="556.82" fill="#132e65"></circle><path d="M209.1 669.77L209.1 669.77" stroke="hsl(228.5, 77.2%, 51.5%)" stroke-width="1.5"></path><path d="M209.1 669.77L252.34 559.97" stroke="hsl(228.5, 77.2%, 51.5%)" stroke-width="1.5"></path><path d="M209.1 669.77L60.98 543.91" stroke="hsl(228.5, 77.2%, 51.5%)" stroke-width="1.5"></path><path d="M209.1 669.77L409.41 682.01" stroke="hsl(228.5, 77.2%, 51.5%)" stroke-width="1.5"></path><path d="M209.1 669.77L382.31 553.87" stroke="hsl(228.5, 77.2%, 51.5%)" stroke-width="1.5"></path><path d="M209.1 669.77L-41.89 664.64" stroke="hsl(228.5, 77.2%, 51.5%)" stroke-width="1.5"></path><path d="M702.18 512.66L702.18 512.66" stroke="hsl(228.5, 77.2%, 51.5%)" stroke-width="1.5"></path><path d="M702.18 512.66L798.5 502.71" stroke="hsl(228.5, 77.2%, 51.5%)" stroke-width="1.5"></path><path d="M702.18 512.66L654.94 695.28" stroke="hsl(228.5, 77.2%, 51.5%)" stroke-width="1.5"></path><path d="M702.18 512.66L798.42 342.58" stroke="hsl(228.5, 77.2%, 51.5%)" stroke-width="1.5"></path><path d="M702.18 512.66L860.17 672.18" stroke="hsl(228.5, 77.2%, 51.5%)" stroke-width="1.5"></path><path d="M702.18 512.66L489.28 665.45" stroke="hsl(228.5, 77.2%, 51.5%)" stroke-width="1.5"></path><path d="M1132.15 488.54L1132.15 488.54" stroke="hsl(228.5, 77.2%, 51.5%)" stroke-width="1.5"></path><path d="M1132.15 488.54L1275.52 523.28" stroke="hsl(228.5, 77.2%, 51.5%)" stroke-width="1.5"></path><path d="M1132.15 488.54L1154.99 639.45" stroke="hsl(228.5, 77.2%, 51.5%)" stroke-width="1.5"></path><path d="M1132.15 488.54L968.49 512.65" stroke="hsl(228.5, 77.2%, 51.5%)" stroke-width="1.5"></path><path d="M1132.15 488.54L1271.36 381.83" stroke="hsl(228.5, 77.2%, 51.5%)" stroke-width="1.5"></path><path d="M1132.15 488.54L942.1 392.75" stroke="hsl(228.5, 77.2%, 51.5%)" stroke-width="1.5"></path><path d="M1132.15 488.54L1273.75 648.32" stroke="hsl(228.5, 77.2%, 51.5%)" stroke-width="1.5"></path><path d="M1301.88 83.57L1301.88 83.57" stroke="hsl(228.5, 77.2%, 51.5%)" stroke-width="1.5"></path><path d="M1301.88 83.57L1252.95 206.43" stroke="hsl(228.5, 77.2%, 51.5%)" stroke-width="1.5"></path><path d="M1301.88 83.57L1448.39 109.15" stroke="hsl(228.5, 77.2%, 51.5%)" stroke-width="1.5"></path><path d="M1301.88 83.57L1238.55 -70.8" stroke="hsl(228.5, 77.2%, 51.5%)" stroke-width="1.5"></path><path d="M1273.75 648.32L1273.75 648.32" stroke="hsl(228.5, 77.2%, 51.5%)" stroke-width="1.5"></path><path d="M1273.75 648.32L1154.99 639.45" stroke="hsl(228.5, 77.2%, 51.5%)" stroke-width="1.5"></path><path d="M1273.75 648.32L1275.52 523.28" stroke="hsl(228.5, 77.2%, 51.5%)" stroke-width="1.5"></path><path d="M1273.75 648.32L1407.66 706.04" stroke="hsl(228.5, 77.2%, 51.5%)" stroke-width="1.5"></path><path d="M1273.75 648.32L1435.09 541.92" stroke="hsl(228.5, 77.2%, 51.5%)" stroke-width="1.5"></path><path d="M1448.39 109.15L1448.39 109.15" stroke="hsl(228.5, 77.2%, 51.5%)" stroke-width="1.5"></path><path d="M1448.39 109.15L1413.36 228.26" stroke="hsl(228.5, 77.2%, 51.5%)" stroke-width="1.5"></path><path d="M1448.39 109.15L1538.43 203.33" stroke="hsl(228.5, 77.2%, 51.5%)" stroke-width="1.5"></path><path d="M1413.36 228.26L1413.36 228.26" stroke="hsl(228.5, 77.2%, 51.5%)" stroke-width="1.5"></path><path d="M1413.36 228.26L1538.43 203.33" stroke="hsl(228.5, 77.2%, 51.5%)" stroke-width="1.5"></path><path d="M1413.36 228.26L1396.26 381.51" stroke="hsl(228.5, 77.2%, 51.5%)" stroke-width="1.5"></path><path d="M1396.26 381.51L1396.26 381.51" stroke="hsl(228.5, 77.2%, 51.5%)" stroke-width="1.5"></path><path d="M1396.26 381.51L1271.36 381.83" stroke="hsl(228.5, 77.2%, 51.5%)" stroke-width="1.5"></path><path d="M1396.26 381.51L1435.09 541.92" stroke="hsl(228.5, 77.2%, 51.5%)" stroke-width="1.5"></path><path d="M1576.91 701.36L1576.91 701.36" stroke="hsl(228.5, 77.2%, 51.5%)" stroke-width="1.5"></path><path d="M1576.91 701.36L1407.66 706.04" stroke="hsl(228.5, 77.2%, 51.5%)" stroke-width="1.5"></path><path d="M1576.91 701.36L1555.08 515.91" stroke="hsl(228.5, 77.2%, 51.5%)" stroke-width="1.5"></path><path d="M1576.91 701.36L1435.09 541.92" stroke="hsl(228.5, 77.2%, 51.5%)" stroke-width="1.5"></path><path d="M1576.91 701.36L1273.75 648.32" stroke="hsl(228.5, 77.2%, 51.5%)" stroke-width="1.5"></path><path d="M-84.32 517.63L-84.32 517.63" stroke="hsl(228.5, 77.2%, 51.5%)" stroke-width="1.5"></path><path d="M-84.32 517.63L60.98 543.91" stroke="hsl(228.5, 77.2%, 51.5%)" stroke-width="1.5"></path><path d="M-84.32 517.63L-41.89 664.64" stroke="hsl(228.5, 77.2%, 51.5%)" stroke-width="1.5"></path><path d="M-84.32 517.63L209.1 669.77" stroke="hsl(228.5, 77.2%, 51.5%)" stroke-width="1.5"></path><path d="M-84.32 517.63L252.34 559.97" stroke="hsl(228.5, 77.2%, 51.5%)" stroke-width="1.5"></path><path d="M-84.32 517.63L382.31 553.87" stroke="hsl(228.5, 77.2%, 51.5%)" stroke-width="1.5"></path><path d="M-41.89 664.64L-41.89 664.64" stroke="hsl(228.5, 77.2%, 51.5%)" stroke-width="1.5"></path><path d="M-41.89 664.64L60.98 543.91" stroke="hsl(228.5, 77.2%, 51.5%)" stroke-width="1.5"></path><path d="M-41.89 664.64L252.34 559.97" stroke="hsl(228.5, 77.2%, 51.5%)" stroke-width="1.5"></path><path d="M-41.89 664.64L382.31 553.87" stroke="hsl(228.5, 77.2%, 51.5%)" stroke-width="1.5"></path><path d="M-41.89 664.64L409.41 682.01" stroke="hsl(228.5, 77.2%, 51.5%)" stroke-width="1.5"></path><path d="M60.98 543.91L60.98 543.91" stroke="hsl(228.5, 77.2%, 51.5%)" stroke-width="1.5"></path><path d="M60.98 543.91L252.34 559.97" stroke="hsl(228.5, 77.2%, 51.5%)" stroke-width="1.5"></path><path d="M252.34 559.97L252.34 559.97" stroke="hsl(228.5, 77.2%, 51.5%)" stroke-width="1.5"></path><path d="M252.34 559.97L382.31 553.87" stroke="hsl(228.5, 77.2%, 51.5%)" stroke-width="1.5"></path><path d="M382.31 553.87L382.31 553.87" stroke="hsl(228.5, 77.2%, 51.5%)" stroke-width="1.5"></path><path d="M382.31 553.87L409.41 682.01" stroke="hsl(228.5, 77.2%, 51.5%)" stroke-width="1.5"></path><path d="M409.41 682.01L409.41 682.01" stroke="hsl(228.5, 77.2%, 51.5%)" stroke-width="1.5"></path><path d="M409.41 682.01L489.28 665.45" stroke="hsl(228.5, 77.2%, 51.5%)" stroke-width="1.5"></path><path d="M409.41 682.01L252.34 559.97" stroke="hsl(228.5, 77.2%, 51.5%)" stroke-width="1.5"></path><path d="M489.28 665.45L489.28 665.45" stroke="hsl(228.5, 77.2%, 51.5%)" stroke-width="1.5"></path><path d="M489.28 665.45L382.31 553.87" stroke="hsl(228.5, 77.2%, 51.5%)" stroke-width="1.5"></path><path d="M489.28 665.45L654.94 695.28" stroke="hsl(228.5, 77.2%, 51.5%)" stroke-width="1.5"></path><path d="M489.28 665.45L252.34 559.97" stroke="hsl(228.5, 77.2%, 51.5%)" stroke-width="1.5"></path><path d="M654.94 695.28L654.94 695.28" stroke="hsl(228.5, 77.2%, 51.5%)" stroke-width="1.5"></path><path d="M798.42 342.58L798.42 342.58" stroke="hsl(228.5, 77.2%, 51.5%)" stroke-width="1.5"></path><path d="M798.42 342.58L942.1 392.75" stroke="hsl(228.5, 77.2%, 51.5%)" stroke-width="1.5"></path><path d="M798.42 342.58L798.5 502.71" stroke="hsl(228.5, 77.2%, 51.5%)" stroke-width="1.5"></path><path d="M798.5 502.71L798.5 502.71" stroke="hsl(228.5, 77.2%, 51.5%)" stroke-width="1.5"></path><path d="M798.5 502.71L968.49 512.65" stroke="hsl(228.5, 77.2%, 51.5%)" stroke-width="1.5"></path><path d="M798.5 502.71L860.17 672.18" stroke="hsl(228.5, 77.2%, 51.5%)" stroke-width="1.5"></path><path d="M798.5 502.71L942.1 392.75" stroke="hsl(228.5, 77.2%, 51.5%)" stroke-width="1.5"></path><path d="M860.17 672.18L860.17 672.18" stroke="hsl(228.5, 77.2%, 51.5%)" stroke-width="1.5"></path><path d="M860.17 672.18L959.68 667.03" stroke="hsl(228.5, 77.2%, 51.5%)" stroke-width="1.5"></path><path d="M860.17 672.18L968.49 512.65" stroke="hsl(228.5, 77.2%, 51.5%)" stroke-width="1.5"></path><path d="M860.17 672.18L654.94 695.28" stroke="hsl(228.5, 77.2%, 51.5%)" stroke-width="1.5"></path><path d="M942.1 392.75L942.1 392.75" stroke="hsl(228.5, 77.2%, 51.5%)" stroke-width="1.5"></path><path d="M942.1 392.75L968.49 512.65" stroke="hsl(228.5, 77.2%, 51.5%)" stroke-width="1.5"></path><path d="M942.1 392.75L1093.16 189.9" stroke="hsl(228.5, 77.2%, 51.5%)" stroke-width="1.5"></path><path d="M968.49 512.65L968.49 512.65" stroke="hsl(228.5, 77.2%, 51.5%)" stroke-width="1.5"></path><path d="M968.49 512.65L959.68 667.03" stroke="hsl(228.5, 77.2%, 51.5%)" stroke-width="1.5"></path><path d="M959.68 667.03L959.68 667.03" stroke="hsl(228.5, 77.2%, 51.5%)" stroke-width="1.5"></path><path d="M959.68 667.03L1154.99 639.45" stroke="hsl(228.5, 77.2%, 51.5%)" stroke-width="1.5"></path><path d="M959.68 667.03L798.5 502.71" stroke="hsl(228.5, 77.2%, 51.5%)" stroke-width="1.5"></path><path d="M959.68 667.03L1132.15 488.54" stroke="hsl(228.5, 77.2%, 51.5%)" stroke-width="1.5"></path><path d="M959.68 667.03L942.1 392.75" stroke="hsl(228.5, 77.2%, 51.5%)" stroke-width="1.5"></path><path d="M1093.16 189.9L1093.16 189.9" stroke="hsl(228.5, 77.2%, 51.5%)" stroke-width="1.5"></path><path d="M1093.16 189.9L1252.95 206.43" stroke="hsl(228.5, 77.2%, 51.5%)" stroke-width="1.5"></path><path d="M1093.16 189.9L1301.88 83.57" stroke="hsl(228.5, 77.2%, 51.5%)" stroke-width="1.5"></path><path d="M1093.16 189.9L1271.36 381.83" stroke="hsl(228.5, 77.2%, 51.5%)" stroke-width="1.5"></path><path d="M1093.16 189.9L1238.55 -70.8" stroke="hsl(228.5, 77.2%, 51.5%)" stroke-width="1.5"></path><path d="M1093.16 189.9L1132.15 488.54" stroke="hsl(228.5, 77.2%, 51.5%)" stroke-width="1.5"></path><path d="M1154.99 639.45L1154.99 639.45" stroke="hsl(228.5, 77.2%, 51.5%)" stroke-width="1.5"></path><path d="M1238.55 -70.8L1238.55 -70.8" stroke="hsl(228.5, 77.2%, 51.5%)" stroke-width="1.5"></path><path d="M1238.55 -70.8L1448.39 109.15" stroke="hsl(228.5, 77.2%, 51.5%)" stroke-width="1.5"></path><path d="M1238.55 -70.8L1252.95 206.43" stroke="hsl(228.5, 77.2%, 51.5%)" stroke-width="1.5"></path><path d="M1238.55 -70.8L1569.91 -79.81" stroke="hsl(228.5, 77.2%, 51.5%)" stroke-width="1.5"></path><path d="M1238.55 -70.8L1413.36 228.26" stroke="hsl(228.5, 77.2%, 51.5%)" stroke-width="1.5"></path><path d="M1252.95 206.43L1252.95 206.43" stroke="hsl(228.5, 77.2%, 51.5%)" stroke-width="1.5"></path><path d="M1252.95 206.43L1413.36 228.26" stroke="hsl(228.5, 77.2%, 51.5%)" stroke-width="1.5"></path><path d="M1252.95 206.43L1271.36 381.83" stroke="hsl(228.5, 77.2%, 51.5%)" stroke-width="1.5"></path><path d="M1252.95 206.43L1448.39 109.15" stroke="hsl(228.5, 77.2%, 51.5%)" stroke-width="1.5"></path><path d="M1271.36 381.83L1271.36 381.83" stroke="hsl(228.5, 77.2%, 51.5%)" stroke-width="1.5"></path><path d="M1271.36 381.83L1275.52 523.28" stroke="hsl(228.5, 77.2%, 51.5%)" stroke-width="1.5"></path><path d="M1275.52 523.28L1275.52 523.28" stroke="hsl(228.5, 77.2%, 51.5%)" stroke-width="1.5"></path><path d="M1275.52 523.28L1435.09 541.92" stroke="hsl(228.5, 77.2%, 51.5%)" stroke-width="1.5"></path><path d="M1435.09 541.92L1435.09 541.92" stroke="hsl(228.5, 77.2%, 51.5%)" stroke-width="1.5"></path><path d="M1435.09 541.92L1555.08 515.91" stroke="hsl(228.5, 77.2%, 51.5%)" stroke-width="1.5"></path><path d="M1407.66 706.04L1407.66 706.04" stroke="hsl(228.5, 77.2%, 51.5%)" stroke-width="1.5"></path><path d="M1407.66 706.04L1435.09 541.92" stroke="hsl(228.5, 77.2%, 51.5%)" stroke-width="1.5"></path><path d="M1569.91 -79.81L1569.91 -79.81" stroke="hsl(228.5, 77.2%, 51.5%)" stroke-width="1.5"></path><path d="M1569.91 -79.81L1448.39 109.15" stroke="hsl(228.5, 77.2%, 51.5%)" stroke-width="1.5"></path><path d="M1569.91 -79.81L1538.43 203.33" stroke="hsl(228.5, 77.2%, 51.5%)" stroke-width="1.5"></path><path d="M1538.43 203.33L1538.43 203.33" stroke="hsl(228.5, 77.2%, 51.5%)" stroke-width="1.5"></path><path d="M1538.43 203.33L1607.85 348.15" stroke="hsl(228.5, 77.2%, 51.5%)" stroke-width="1.5"></path><path d="M1538.43 203.33L1396.26 381.51" stroke="hsl(228.5, 77.2%, 51.5%)" stroke-width="1.5"></path><path d="M1538.43 203.33L1301.88 83.57" stroke="hsl(228.5, 77.2%, 51.5%)" stroke-width="1.5"></path><path d="M1607.85 348.15L1607.85 348.15" stroke="hsl(228.5, 77.2%, 51.5%)" stroke-width="1.5"></path><path d="M1607.85 348.15L1555.08 515.91" stroke="hsl(228.5, 77.2%, 51.5%)" stroke-width="1.5"></path><path d="M1607.85 348.15L1396.26 381.51" stroke="hsl(228.5, 77.2%, 51.5%)" stroke-width="1.5"></path><path d="M1607.85 348.15L1413.36 228.26" stroke="hsl(228.5, 77.2%, 51.5%)" stroke-width="1.5"></path><path d="M1607.85 348.15L1435.09 541.92" stroke="hsl(228.5, 77.2%, 51.5%)" stroke-width="1.5"></path><path d="M1555.08 515.91L1555.08 515.91" stroke="hsl(228.5, 77.2%, 51.5%)" stroke-width="1.5"></path><path d="M1555.08 515.91L1396.26 381.51" stroke="hsl(228.5, 77.2%, 51.5%)" stroke-width="1.5"></path><path d="M1555.08 515.91L1407.66 706.04" stroke="hsl(228.5, 77.2%, 51.5%)" stroke-width="1.5"></path><circle r="25" cx="209.1" cy="669.77" fill="url(#SvgjsRadialGradient1001)"></circle><circle r="25" cx="702.18" cy="512.66" fill="url(#SvgjsRadialGradient1001)"></circle><circle r="25" cx="1132.15" cy="488.54" fill="url(#SvgjsRadialGradient1001)"></circle><circle r="25" cx="1301.88" cy="83.57" fill="url(#SvgjsRadialGradient1001)"></circle><circle r="25" cx="1273.75" cy="648.32" fill="url(#SvgjsRadialGradient1001)"></circle><circle r="25" cx="1448.39" cy="109.15" fill="url(#SvgjsRadialGradient1001)"></circle><circle r="25" cx="1413.36" cy="228.26" fill="url(#SvgjsRadialGradient1001)"></circle><circle r="25" cx="1396.26" cy="381.51" fill="url(#SvgjsRadialGradient1001)"></circle><circle r="25" cx="1576.91" cy="701.36" fill="url(#SvgjsRadialGradient1001)"></circle><circle r="5" cx="-84.32" cy="517.63" fill="#8b9ad9"></circle><circle r="5" cx="-41.89" cy="664.64" fill="#8b9ad9"></circle><circle r="5" cx="60.98" cy="543.91" fill="#8b9ad9"></circle><circle r="5" cx="252.34" cy="559.97" fill="#8b9ad9"></circle><circle r="5" cx="382.31" cy="553.87" fill="#8b9ad9"></circle><circle r="5" cx="409.41" cy="682.01" fill="#8b9ad9"></circle><circle r="5" cx="489.28" cy="665.45" fill="#8b9ad9"></circle><circle r="5" cx="654.94" cy="695.28" fill="#8b9ad9"></circle><circle r="5" cx="798.42" cy="342.58" fill="#8b9ad9"></circle><circle r="5" cx="798.5" cy="502.71" fill="#8b9ad9"></circle><circle r="5" cx="860.17" cy="672.18" fill="#8b9ad9"></circle><circle r="5" cx="942.1" cy="392.75" fill="#8b9ad9"></circle><circle r="5" cx="968.49" cy="512.65" fill="#8b9ad9"></circle><circle r="5" cx="959.68" cy="667.03" fill="#8b9ad9"></circle><circle r="5" cx="1093.16" cy="189.9" fill="#8b9ad9"></circle><circle r="5" cx="1154.99" cy="639.45" fill="#8b9ad9"></circle><circle r="5" cx="1238.55" cy="-70.8" fill="#8b9ad9"></circle><circle r="5" cx="1252.95" cy="206.43" fill="#8b9ad9"></circle><circle r="5" cx="1271.36" cy="381.83" fill="#8b9ad9"></circle><circle r="5" cx="1275.52" cy="523.28" fill="#8b9ad9"></circle><circle r="5" cx="1435.09" cy="541.92" fill="#8b9ad9"></circle><circle r="5" cx="1407.66" cy="706.04" fill="#8b9ad9"></circle><circle r="5" cx="1569.91" cy="-79.81" fill="#8b9ad9"></circle><circle r="5" cx="1538.43" cy="203.33" fill="#8b9ad9"></circle><circle r="5" cx="1607.85" cy="348.15" fill="#8b9ad9"></circle><circle r="5" cx="1555.08" cy="515.91" fill="#8b9ad9"></circle></g><defs><mask id="SvgjsMask1000"><rect width="1440" height="560" fill="#ffffff"></rect></mask><radialGradient id="SvgjsRadialGradient1001"><stop stop-color="#ffffff" offset="0.1"></stop><stop stop-color="#1735b3" offset="0.2"></stop><stop stop-color="rgba(23, 53, 179, 0)" offset="1"></stop></radialGradient></defs></svg>