<?xml version="1.0" encoding="UTF-8" standalone="no"?>
<svg
   xmlns:dc="http://purl.org/dc/elements/1.1/"
   xmlns:cc="http://creativecommons.org/ns#"
   xmlns:rdf="http://www.w3.org/1999/02/22-rdf-syntax-ns#"
   xmlns:svg="http://www.w3.org/2000/svg"
   xmlns="http://www.w3.org/2000/svg"
   viewBox="0 0 666.66669 666.66669"
   height="666.66669"
   width="666.66669"
   xml:space="preserve"
   id="svg2"
   version="1.1"><metadata
     id="metadata8"><rdf:RDF><cc:Work
         rdf:about=""><dc:format>image/svg+xml</dc:format><dc:type
           rdf:resource="http://purl.org/dc/dcmitype/StillImage" /></cc:Work></rdf:RDF></metadata><defs
     id="defs6"><clipPath
       id="clipPath20"
       clipPathUnits="userSpaceOnUse"><path
         id="path18"
         d="M 0,500 H 500 V 0 H 0 Z" /></clipPath><clipPath
       id="clipPath176"
       clipPathUnits="userSpaceOnUse"><path
         id="path174"
         d="M 0,500 H 500 V 0 H 0 Z" /></clipPath><clipPath
       id="clipPath204"
       clipPathUnits="userSpaceOnUse"><path
         id="path202"
         d="M 0,500 H 500 V 0 H 0 Z" /></clipPath></defs><g
     transform="matrix(1.3333333,0,0,-1.3333333,0,666.66667)"
     id="g10"><path
       id="path12"
       style="fill:#ffffff;fill-opacity:1;fill-rule:nonzero;stroke:none"
       d="M 0,0 H 500 V 500 H 0 Z" /><g
       id="g14"><g
         clip-path="url(#clipPath20)"
         id="g16"><g
           transform="translate(451.9401,329.9313)"
           id="g22"><path
             id="path24"
             style="fill:#e5f1ff;fill-opacity:1;fill-rule:nonzero;stroke:none"
             d="m 0,0 c 0,-47.397 -38.423,-85.819 -85.819,-85.819 -47.397,0 -85.82,38.422 -85.82,85.819 0,47.396 38.423,85.819 85.82,85.819 C -38.423,85.819 0,47.396 0,0" /></g><g
           transform="translate(195.1593,149.0143)"
           id="g26"><path
             id="path28"
             style="fill:#e5f1ff;fill-opacity:1;fill-rule:nonzero;stroke:none"
             d="m 0,0 c 0,-27.702 -22.458,-50.16 -50.16,-50.16 -27.702,0 -50.16,22.458 -50.16,50.16 0,27.702 22.458,50.159 50.16,50.159 C -22.458,50.159 0,27.702 0,0" /></g><g
           transform="translate(144.3297,311.966)"
           id="g30"><path
             id="path32"
             style="fill:#a9ccea;fill-opacity:1;fill-rule:nonzero;stroke:none"
             d="m 0,0 c -16.192,0 -29.318,13.126 -29.318,29.318 0,16.192 13.126,29.318 29.318,29.318 16.192,0 29.318,-13.126 29.318,-29.318 C 29.318,13.126 16.192,0 0,0 m 0,75.175 c -25.326,0 -45.856,-20.531 -45.856,-45.857 0,-25.326 20.53,-45.857 45.856,-45.857 25.326,0 45.856,20.531 45.856,45.857 0,25.326 -20.53,45.857 -45.856,45.857" /></g><g
           transform="translate(317.5768,93.9597)"
           id="g34"><path
             id="path36"
             style="fill:#0f3157;fill-opacity:1;fill-rule:nonzero;stroke:none"
             d="m 0,0 c 0,-2.906 -2.355,-5.262 -5.262,-5.262 h -133.059 c -2.907,0 -5.262,2.356 -5.262,5.262 0,2.906 2.355,5.263 5.262,5.263 h 47.235 l 6.515,12.027 h 11.276 3.007 11.276 L -52.497,5.263 H -5.262 C -2.355,5.263 0,2.906 0,0" /></g><path
           id="path38"
           style="fill:#ff4d6b;fill-opacity:1;fill-rule:nonzero;stroke:none"
           d="m 255.588,115.76 h -21.8 v 6.39 h 21.8 z" /><path
           id="path40"
           style="fill:#ff4d6b;fill-opacity:1;fill-rule:nonzero;stroke:none"
           d="m 255.588,126.285 h -21.8 v 6.39 h 21.8 z" /><g
           transform="translate(418.2643,154.2985)"
           id="g42"><path
             id="path44"
             style="fill:none;stroke:#ff4d6b;stroke-width:1.12800002;stroke-linecap:round;stroke-linejoin:round;stroke-miterlimit:10;stroke-dasharray:0, 5.638;stroke-dashoffset:0;stroke-opacity:1"
             d="m 0,0 c -3.792,-1.455 -7.91,-2.253 -12.214,-2.253 -18.828,0 -34.092,15.264 -34.092,34.092 0,18.828 15.264,34.092 34.092,34.092 18.828,0 34.091,-15.264 34.091,-34.092 0,-5.045 -1.096,-9.834 -3.063,-14.143" /></g><g
           transform="translate(272.6598,314.3283)"
           id="g46"><path
             id="path48"
             style="fill:#289df2;fill-opacity:1;fill-rule:nonzero;stroke:none"
             d="m 0,0 c -11.911,0 -21.567,9.656 -21.567,21.567 0,11.912 9.656,21.568 21.567,21.568 11.912,0 21.568,-9.656 21.568,-21.568 C 21.568,9.656 11.912,0 0,0 m 49.345,31.861 h -5.444 c -1.13,4.836 -3.031,9.373 -5.579,13.472 l 3.848,3.848 c 1.659,1.658 1.659,4.348 0,6.007 l -8.549,8.55 c -1.659,1.658 -4.349,1.658 -6.008,0 L 23.766,59.89 c -4.099,2.547 -8.636,4.449 -13.472,5.579 v 5.443 c 0,2.346 -1.902,4.248 -4.248,4.248 H -6.045 c -2.347,0 -4.248,-1.902 -4.248,-4.248 v -5.443 c -4.837,-1.13 -9.373,-3.032 -13.472,-5.579 l -3.847,3.848 c -1.659,1.658 -4.349,1.658 -6.008,0 l -8.549,-8.55 c -1.66,-1.659 -1.66,-4.349 0,-6.007 l 3.847,-3.848 c -2.547,-4.099 -4.449,-8.636 -5.579,-13.472 h -5.443 c -2.345,0 -4.247,-1.902 -4.247,-4.248 V 15.522 c 0,-2.346 1.902,-4.248 4.247,-4.248 h 5.443 c 1.13,-4.836 3.032,-9.373 5.579,-13.472 l -3.847,-3.847 c -1.66,-1.659 -1.66,-4.349 0,-6.008 l 8.549,-8.55 c 1.659,-1.658 4.349,-1.658 6.008,0 l 3.847,3.848 c 4.098,-2.547 8.635,-4.449 13.472,-5.578 v -5.443 c 0,-2.346 1.901,-4.248 4.248,-4.248 H 6.046 c 2.346,0 4.248,1.902 4.248,4.248 v 5.443 c 4.836,1.129 9.373,3.031 13.472,5.578 l 3.847,-3.848 c 1.659,-1.658 4.349,-1.658 6.008,0 l 8.549,8.55 c 1.659,1.659 1.659,4.349 0,6.008 l -3.847,3.847 c 2.547,4.099 4.448,8.636 5.578,13.472 h 5.444 c 2.345,0 4.248,1.902 4.248,4.248 v 12.091 c 0,2.346 -1.903,4.248 -4.248,4.248" /></g><g
           transform="translate(96.0109,135.5475)"
           id="g50"><path
             id="path52"
             style="fill:#0f3775;fill-opacity:1;fill-rule:nonzero;stroke:none"
             d="M 0,0 C -6.333,0 -11.467,5.134 -11.467,11.468 V 190.93 c 0,6.334 5.134,11.468 11.467,11.468 h 299.548 c 6.334,0 11.468,-5.134 11.468,-11.467 V 11.468 C 311.016,5.134 305.882,0 299.548,0 Z" /></g><path
           id="path54"
           style="fill:#284d89;fill-opacity:1;fill-rule:nonzero;stroke:none"
           d="m 141.322,305.576 h -33.265 v 7.33 h 33.265 z" /><path
           id="path56"
           style="fill:#284d89;fill-opacity:1;fill-rule:nonzero;stroke:none"
           d="m 181.353,305.576 h -33.265 v 7.33 h 33.265 z" /><path
           id="path58"
           style="fill:#284d89;fill-opacity:1;fill-rule:nonzero;stroke:none"
           d="m 282.839,305.576 h -33.265 v 7.33 h 33.265 z" /><path
           id="path60"
           style="fill:#284d89;fill-opacity:1;fill-rule:nonzero;stroke:none"
           d="m 384.325,305.576 h -33.266 v 7.33 h 33.266 z" /><path
           id="path62"
           style="fill:#ff4d6b;fill-opacity:1;fill-rule:nonzero;stroke:none"
           d="m 245.345,305.576 h -59.482 v 7.33 h 59.482 z" /><path
           id="path64"
           style="fill:#2889db;fill-opacity:1;fill-rule:nonzero;stroke:none"
           d="m 346.267,305.576 h -59.481 v 7.33 h 59.481 z" /><path
           id="path66"
           style="fill:#2889db;fill-opacity:1;fill-rule:nonzero;stroke:none"
           d="m 114.072,315.161 h -5.826 v 3.571 h 5.826 z" /><path
           id="path68"
           style="fill:#ffffff;fill-opacity:1;fill-rule:nonzero;stroke:none"
           d="m 169.043,295.991 h -60.797 v 3.571 h 60.797 z" /><path
           id="path70"
           style="fill:#ffffff;fill-opacity:1;fill-rule:nonzero;stroke:none"
           d="m 126.288,289.695 h -18.042 v 3.571 h 18.042 z" /><g
           transform="translate(172.6139,161.2409)"
           id="g72"><path
             id="path74"
             style="fill:#284d89;fill-opacity:1;fill-rule:nonzero;stroke:none"
             d="m 0,0 h -56.381 c -4.203,0 -7.611,3.408 -7.611,7.611 v 102.05 c 0,4.204 3.408,7.611 7.611,7.611 H 0 c 4.204,0 7.611,-3.407 7.611,-7.611 V 7.611 C 7.611,3.408 4.204,0 0,0" /></g><path
           id="path76"
           style="fill:#ffffff;fill-opacity:1;fill-rule:nonzero;stroke:none"
           d="m 141.605,257.653 h -23.962 v 3.665 h 23.962 z" /><path
           id="path78"
           style="fill:#ffffff;fill-opacity:1;fill-rule:nonzero;stroke:none"
           d="m 141.605,249.477 h -23.962 v 3.665 h 23.962 z" /><path
           id="path80"
           style="fill:#ffffff;fill-opacity:1;fill-rule:nonzero;stroke:none"
           d="m 141.605,241.301 h -23.962 v 3.665 h 23.962 z" /><path
           id="path82"
           style="fill:#ffffff;fill-opacity:1;fill-rule:nonzero;stroke:none"
           d="m 132.301,207.191 h -14.659 v 3.665 h 14.659 z" /><path
           id="path84"
           style="fill:#ffffff;fill-opacity:1;fill-rule:nonzero;stroke:none"
           d="m 132.301,199.016 h -14.659 v 3.665 h 14.659 z" /><path
           id="path86"
           style="fill:#ffffff;fill-opacity:1;fill-rule:nonzero;stroke:none"
           d="m 157.485,199.016 h -14.659 v 3.665 h 14.659 z" /><path
           id="path88"
           style="fill:#ffffff;fill-opacity:1;fill-rule:nonzero;stroke:none"
           d="m 126.852,216.494 h -9.209 v 3.665 h 9.209 z" /><path
           id="path90"
           style="fill:#ffffff;fill-opacity:1;fill-rule:nonzero;stroke:none"
           d="m 161.996,216.494 h -4.886 v 3.665 h 4.886 z" /><path
           id="path92"
           style="fill:#ff4d6b;fill-opacity:1;fill-rule:nonzero;stroke:none"
           d="m 155.23,216.494 h -25.184 v 3.665 h 25.184 z" /><path
           id="path94"
           style="fill:#2889db;fill-opacity:1;fill-rule:nonzero;stroke:none"
           d="m 121.166,230.307 h -3.523 v 3.665 h 3.523 z" /><path
           id="path96"
           style="fill:#ff4d6b;fill-opacity:1;fill-rule:nonzero;stroke:none"
           d="m 121.166,223.824 h -3.523 v 3.665 h 3.523 z" /><g
           transform="translate(137.1881,198.2643)"
           id="g98"><path
             id="path100"
             style="fill:#ffffff;fill-opacity:1;fill-rule:nonzero;stroke:none"
             d="M 0,0 H -1.316 L 1.832,4.698 H 3.148 Z" /></g><path
           id="path102"
           style="fill:#282e5c;fill-opacity:1;fill-rule:nonzero;stroke:none"
           d="m 172.05,188.868 h -54.408 v 3.101 h 54.408 z" /><path
           id="path104"
           style="fill:#282e5c;fill-opacity:1;fill-rule:nonzero;stroke:none"
           d="m 172.05,181.82 h -54.408 v 3.101 h 54.408 z" /><g
           transform="translate(433.7516,230.0261)"
           id="g106"><path
             id="path108"
             style="fill:#289df2;fill-opacity:1;fill-rule:nonzero;stroke:none"
             d="m 0,0 h -149.598 c -3.736,0 -6.765,3.028 -6.765,6.766 V 47.36 c 0,3.736 3.029,6.765 6.765,6.765 H 0 c 3.736,0 6.766,-3.029 6.766,-6.765 V 6.766 C 6.766,3.028 3.736,0 0,0" /></g><g
           transform="translate(325.8766,249.195)"
           id="g110"><path
             id="path112"
             style="fill:none;stroke:#ffffff;stroke-width:1.12800002;stroke-linecap:butt;stroke-linejoin:miter;stroke-miterlimit:10;stroke-dasharray:none;stroke-opacity:1"
             d="M 0,0 C 0,0 8.269,20.297 31.949,15.411 55.629,10.525 67.657,-16.162 98.103,5.638" /></g><path
           id="path114"
           style="fill:#289df2;fill-opacity:1;fill-rule:nonzero;stroke:#ffffff;stroke-width:1.12800002;stroke-linecap:butt;stroke-linejoin:miter;stroke-miterlimit:10;stroke-dasharray:none;stroke-opacity:1"
           d="m 402.554,244.684 h -3.383 v 3.384 h 3.383 z" /><g
           transform="translate(330.0104,265.5456)"
           id="g116"><path
             id="path118"
             style="fill:#289df2;fill-opacity:1;fill-rule:nonzero;stroke:#ffffff;stroke-width:0.56400001;stroke-linecap:butt;stroke-linejoin:miter;stroke-miterlimit:10;stroke-dasharray:none;stroke-opacity:1"
             d="M 0,0 H 42.85" /></g><g
           transform="translate(379.4381,245.4362)"
           id="g120"><path
             id="path122"
             style="fill:#289df2;fill-opacity:1;fill-rule:nonzero;stroke:#ffffff;stroke-width:0.56400001;stroke-linecap:butt;stroke-linejoin:miter;stroke-miterlimit:10;stroke-dasharray:none;stroke-opacity:1"
             d="M 0,0 H 42.85" /></g><path
           id="path124"
           style="fill:#289df2;fill-opacity:1;fill-rule:nonzero;stroke:#ffffff;stroke-width:1.12800002;stroke-linecap:butt;stroke-linejoin:miter;stroke-miterlimit:10;stroke-dasharray:none;stroke-opacity:1"
           d="m 351.435,263.854 h -3.383 v 3.383 h 3.383 z" /><g
           transform="translate(305.9547,216.1188)"
           id="g126"><path
             id="path128"
             style="fill:#284d89;fill-opacity:1;fill-rule:nonzero;stroke:none"
             d="m 0,0 h -32.325 c -2.698,0 -4.886,2.188 -4.886,4.886 v 48.488 c 0,2.698 2.188,4.886 4.886,4.886 L 0,58.26 c 2.699,0 4.887,-2.188 4.887,-4.886 V 4.886 C 4.887,2.188 2.699,0 0,0" /></g><path
           id="path130"
           style="fill:#ffffff;fill-opacity:1;fill-rule:nonzero;stroke:none"
           d="m 299.283,262.806 h -23.962 v 3.304 h 23.962 z" /><path
           id="path132"
           style="fill:#ffffff;fill-opacity:1;fill-rule:nonzero;stroke:none"
           d="m 299.283,255.436 h -23.962 v 3.304 h 23.962 z" /><path
           id="path134"
           style="fill:#ffffff;fill-opacity:1;fill-rule:nonzero;stroke:none"
           d="m 284.342,248.066 h -9.021 v 3.304 h 9.021 z" /><path
           id="path136"
           style="fill:#289df2;fill-opacity:1;fill-rule:nonzero;stroke:none"
           d="m 290.92,240.443 h -15.599 v 3.303 h 15.599 z" /><path
           id="path138"
           style="fill:#289df2;fill-opacity:1;fill-rule:nonzero;stroke:none"
           d="m 285.845,233.073 h -10.524 v 3.304 h 10.524 z" /><path
           id="path140"
           style="fill:#ffffff;fill-opacity:1;fill-rule:nonzero;stroke:none"
           d="m 285.845,225.703 h -10.524 v 3.304 h 10.524 z" /><g
           transform="translate(414.2067,291.4811)"
           id="g142"><path
             id="path144"
             style="fill:none;stroke:#284d89;stroke-width:2.25500011;stroke-linecap:round;stroke-linejoin:round;stroke-miterlimit:10;stroke-dasharray:none;stroke-opacity:1"
             d="M 0,0 H 16.914" /></g><g
           transform="translate(376.2018,196.0417)"
           id="g146"><path
             id="path148"
             style="fill:none;stroke:#ff5c66;stroke-width:1.01499999;stroke-linecap:butt;stroke-linejoin:miter;stroke-miterlimit:10;stroke-dasharray:none;stroke-opacity:1"
             d="m 0,0 -5.838,-4.568 -8.376,-1.523 c 0,0 -7.868,0.507 -8.629,0.507 -0.761,0 -6.092,4.315 -6.092,4.315 l -9.898,3.553 -6.854,-2.538 -8.122,1.777 -12.182,0.761 -11.676,-4.568 -9.645,-1.523 -8.628,-2.792 -9.646,-0.761 -10.406,8.122 -9.645,1.776 -9.899,-5.584 -7.868,-2.538 -8.932,0.254 -11.259,-6.853 h -6.713 l -11.337,-3.976" /></g><g
           transform="translate(194.7262,179.7136)"
           id="g150"><path
             id="path152"
             style="fill:none;stroke:#f7f7f7;stroke-width:0.25400001;stroke-linecap:butt;stroke-linejoin:miter;stroke-miterlimit:10;stroke-dasharray:none;stroke-opacity:1"
             d="M 0,0 H 181.729" /></g><path
           id="path154"
           style="fill:#f7f7f7;fill-opacity:1;fill-rule:nonzero;stroke:none"
           d="m 194.811,177.429 h -1.861 v 4.568 h 1.861 z" /><path
           id="path156"
           style="fill:#f7f7f7;fill-opacity:1;fill-rule:nonzero;stroke:none"
           d="m 377.216,177.429 h -1.861 v 4.568 h 1.861 z" /><g
           transform="translate(376.2867,179.7136)"
           id="g158"><path
             id="path160"
             style="fill:none;stroke:#f7f7f7;stroke-width:0.25400001;stroke-linecap:butt;stroke-linejoin:miter;stroke-miterlimit:10;stroke-dasharray:none;stroke-opacity:1"
             d="M 0,0 V 15.313" /></g><g
           transform="translate(377.3014,195.7878)"
           id="g162"><path
             id="path164"
             style="fill:#f7f7f7;fill-opacity:1;fill-rule:nonzero;stroke:none"
             d="m 0,0 c 0,-0.794 -0.644,-1.437 -1.438,-1.437 -0.794,0 -1.438,0.643 -1.438,1.437 0,0.795 0.644,1.438 1.438,1.438 C -0.644,1.438 0,0.795 0,0" /></g></g></g><text
       id="text168"
       style="font-variant:normal;font-weight:normal;font-stretch:normal;font-size:8.12199974px;font-family:'Bebas Neue Regular';-inkscape-font-specification:BebasNeueRegular;writing-mode:lr-tb;fill:#f7f7f7;fill-opacity:1;fill-rule:nonzero;stroke:none"
       transform="matrix(1,0,0,-1,194.9795,168.9961)"><tspan
         id="tspan166"
         y="0"
         x="0 3.671144 7.0823841 10.184988 14.099792 15.846022 19.257261 22.668503 26.177206">beta test</tspan></text>
<g
       id="g170"><g
         clip-path="url(#clipPath176)"
         id="g172"><path
           id="path178"
           style="fill:#28385e;fill-opacity:1;fill-rule:nonzero;stroke:none"
           d="M 349.72,171.084 H 236.69 v 2.03 h 113.03 z" /><path
           id="path180"
           style="fill:#ff4d6b;fill-opacity:1;fill-rule:nonzero;stroke:none"
           d="M 306.065,171.084 H 236.69 v 2.03 h 69.375 z" /><path
           id="path182"
           style="fill:#28385e;fill-opacity:1;fill-rule:nonzero;stroke:none"
           d="M 292.275,167.192 H 236.69 v 2.03 h 55.585 z" /><g
           transform="translate(201.4523,163.1735)"
           id="g184"><path
             id="path186"
             style="fill:#ff4d6b;fill-opacity:1;fill-rule:nonzero;stroke:none"
             d="M 0,0 H 6.853 L 7.741,1.903 H -6.091 V -1.27 h 4.822 z" /></g><path
           id="path188"
           style="fill:#f7f7f7;fill-opacity:1;fill-rule:nonzero;stroke:none"
           d="m 215.655,164.337 h -0.762 v 0.762 h 0.762 z" /><path
           id="path190"
           style="fill:#f7f7f7;fill-opacity:1;fill-rule:nonzero;stroke:none"
           d="m 220.382,164.337 h -0.761 v 0.762 h 0.761 z" /><path
           id="path192"
           style="fill:#f7f7f7;fill-opacity:1;fill-rule:nonzero;stroke:none"
           d="m 225.11,164.337 h -0.762 v 0.762 h 0.762 z" /></g></g><text
       id="text196"
       style="font-variant:normal;font-weight:normal;font-stretch:normal;font-size:8.12199974px;font-family:'Bebas Neue Book';-inkscape-font-specification:BebasNeueBook;writing-mode:lr-tb;fill:#f7f7f7;fill-opacity:1;fill-rule:nonzero;stroke:none"
       transform="matrix(1,0,0,-1,367.4004,200.8633)"><tspan
         id="tspan194"
         y="0"
         x="0 3.557436 7.1392379">500</tspan></text>
<g
       id="g198"><g
         clip-path="url(#clipPath204)"
         id="g200"><g
           transform="translate(357.8424,167.0231)"
           id="g206"><path
             id="path208"
             style="fill:#28385e;fill-opacity:1;fill-rule:nonzero;stroke:none"
             d="m 0,0 h -1.692 l -2.707,6.091 h 1.692 z" /></g><g
           transform="translate(362.2418,167.0231)"
           id="g210"><path
             id="path212"
             style="fill:#28385e;fill-opacity:1;fill-rule:nonzero;stroke:none"
             d="m 0,0 h -1.692 l -2.707,6.091 h 1.692 z" /></g><g
           transform="translate(366.6412,167.0231)"
           id="g214"><path
             id="path216"
             style="fill:#28385e;fill-opacity:1;fill-rule:nonzero;stroke:none"
             d="m 0,0 h -1.692 l -2.707,6.091 h 1.692 z" /></g><g
           transform="translate(371.0406,167.0231)"
           id="g218"><path
             id="path220"
             style="fill:#28385e;fill-opacity:1;fill-rule:nonzero;stroke:none"
             d="m 0,0 h -1.692 l -2.707,6.091 h 1.692 z" /></g><g
           transform="translate(375.3551,167.0231)"
           id="g222"><path
             id="path224"
             style="fill:#28385e;fill-opacity:1;fill-rule:nonzero;stroke:none"
             d="m 0,0 h -1.691 l -2.708,6.091 h 1.692 z" /></g><path
           id="path226"
           style="fill:#a9ccea;fill-opacity:1;fill-rule:nonzero;stroke:none"
           d="m 340.498,376.748 h 27.513 v -4.928 h -27.513 z" /><path
           id="path228"
           style="fill:#a9ccea;fill-opacity:1;fill-rule:nonzero;stroke:none"
           d="m 340.498,367.93 h 41.484 v -4.927 h -41.484 z" /><path
           id="path230"
           style="fill:#a9ccea;fill-opacity:1;fill-rule:nonzero;stroke:none"
           d="m 340.498,359.112 h 51.156 v -4.928 h -51.156 z" /><path
           id="path232"
           style="fill:#a9ccea;fill-opacity:1;fill-rule:nonzero;stroke:none"
           d="m 340.498,350.294 h 19.56 v -4.928 h -19.56 z" /><path
           id="path234"
           style="fill:#2889db;fill-opacity:1;fill-rule:nonzero;stroke:none"
           d="M 51.827,317.36 H 79.34 v -4.928 H 51.827 Z" /><path
           id="path236"
           style="fill:#a9ccea;fill-opacity:1;fill-rule:nonzero;stroke:none"
           d="m 51.827,308.542 h 41.484 v -4.927 H 51.827 Z" /><path
           id="path238"
           style="fill:#a9ccea;fill-opacity:1;fill-rule:nonzero;stroke:none"
           d="m 51.827,299.724 h 51.157 v -4.928 H 51.827 Z" /><path
           id="path240"
           style="fill:#a9ccea;fill-opacity:1;fill-rule:nonzero;stroke:none"
           d="m 51.827,290.906 h 19.56 v -4.928 h -19.56 z" /><path
           id="path242"
           style="fill:none;stroke:#289df2;stroke-width:1.12800002;stroke-linecap:butt;stroke-linejoin:miter;stroke-miterlimit:10;stroke-dasharray:none;stroke-opacity:1"
           d="M 237.734,129.104 H 120.462 v 15.223 h 117.272 z" /><path
           id="path244"
           style="fill:none;stroke:#289df2;stroke-width:1.12800002;stroke-linecap:butt;stroke-linejoin:miter;stroke-miterlimit:10;stroke-dasharray:none;stroke-opacity:1"
           d="m 182.669,229.65 h -5.638 v 34.58 h 5.638 z" /><g
           transform="translate(425.483,186.1374)"
           id="g246"><path
             id="path248"
             style="fill:#ff4d6b;fill-opacity:1;fill-rule:nonzero;stroke:none"
             d="m 0,0 c 0,-10.732 -8.7,-19.433 -19.433,-19.433 -10.732,0 -19.432,8.701 -19.432,19.433 0,10.732 8.7,19.433 19.432,19.433 C -8.7,19.433 0,10.732 0,0" /></g><g
           transform="translate(404.6422,187.9606)"
           id="g250"><path
             id="path252"
             style="fill:#f9fbfc;fill-opacity:1;fill-rule:nonzero;stroke:none"
             d="M 0,0 -7.719,-2.828 0,-5.633 V -8.53 l -11.033,4.195 v 3.014 L 0,2.873 Z" /></g><g
           transform="translate(407.1627,190.8337)"
           id="g254"><path
             id="path256"
             style="fill:#f9fbfc;fill-opacity:1;fill-rule:nonzero;stroke:none"
             d="M 0,0 11.033,-4.194 V -7.208 L 0,-11.403 v 2.897 L 7.718,-5.701 0,-2.873 Z" /></g><g
           transform="translate(438.4498,170.2624)"
           id="g258"><path
             id="path260"
             style="fill:none;stroke:#ff4d6b;stroke-width:1.12800002;stroke-linecap:butt;stroke-linejoin:miter;stroke-miterlimit:10;stroke-dasharray:none;stroke-opacity:1"
             d="m 0,0 c 0,-1.401 -1.136,-2.538 -2.537,-2.538 -1.401,0 -2.537,1.137 -2.537,2.538 0,1.4 1.136,2.536 2.537,2.536 C -1.136,2.536 0,1.4 0,0 Z" /></g><path
           id="path262"
           style="fill:none;stroke:#289df2;stroke-width:1.12800002;stroke-linecap:butt;stroke-linejoin:miter;stroke-miterlimit:10;stroke-dasharray:none;stroke-opacity:1"
           d="M 206.161,344.479 H 114.26 v 9.584 h 91.901 z" /><path
           id="path264"
           style="fill:#289df2;fill-opacity:1;fill-rule:nonzero;stroke:none"
           d="m 175.151,348.144 h -56.945 v 2.819 h 56.945 z" /><path
           id="path266"
           style="fill:#284d89;fill-opacity:1;fill-rule:nonzero;stroke:none"
           d="m 259.722,275.882 h -67.281 v 3.383 h 67.281 z" /><path
           id="path268"
           style="fill:#2889db;fill-opacity:1;fill-rule:nonzero;stroke:none"
           d="m 222.934,275.882 h -30.493 v 3.383 h 30.493 z" /><path
           id="path270"
           style="fill:#284d89;fill-opacity:1;fill-rule:nonzero;stroke:none"
           d="m 259.722,267.143 h -67.281 v 3.383 h 67.281 z" /><path
           id="path272"
           style="fill:#ff4d6b;fill-opacity:1;fill-rule:nonzero;stroke:none"
           d="m 239.284,267.143 h -46.843 v 3.383 h 46.843 z" /><path
           id="path274"
           style="fill:#284d89;fill-opacity:1;fill-rule:nonzero;stroke:none"
           d="m 259.722,258.404 h -67.281 v 3.383 h 67.281 z" /><path
           id="path276"
           style="fill:#1ae5ff;fill-opacity:1;fill-rule:nonzero;stroke:none"
           d="m 206.161,258.404 h -13.72 v 3.383 h 13.72 z" /><path
           id="path278"
           style="fill:#284d89;fill-opacity:1;fill-rule:nonzero;stroke:none"
           d="m 194.039,283.869 h -1.315 v 1.316 h 1.315 z" /><path
           id="path280"
           style="fill:#284d89;fill-opacity:1;fill-rule:nonzero;stroke:none"
           d="m 198.549,283.869 h -1.316 v 1.316 h 1.316 z" /><path
           id="path282"
           style="fill:#284d89;fill-opacity:1;fill-rule:nonzero;stroke:none"
           d="m 203.06,283.869 h -1.315 v 1.316 h 1.315 z" /><path
           id="path284"
           style="fill:#ffffff;fill-opacity:1;fill-rule:nonzero;stroke:none"
           d="m 320.113,236.917 h -2.192 v 2.192 h 2.192 z" /><path
           id="path286"
           style="fill:#ffffff;fill-opacity:1;fill-rule:nonzero;stroke:none"
           d="m 327.63,236.917 h -2.192 v 2.192 h 2.192 z" /><path
           id="path288"
           style="fill:#ffffff;fill-opacity:1;fill-rule:nonzero;stroke:none"
           d="m 335.148,236.917 h -2.193 v 2.192 h 2.193 z" /><path
           id="path290"
           style="fill:#ffffff;fill-opacity:1;fill-rule:nonzero;stroke:none"
           d="m 353.679,322.126 h -4.111 v 4.111 h 4.111 z" /><path
           id="path292"
           style="fill:#ffffff;fill-opacity:1;fill-rule:nonzero;stroke:none"
           d="m 367.774,322.126 h -4.111 v 4.111 h 4.111 z" /><path
           id="path294"
           style="fill:#ffffff;fill-opacity:1;fill-rule:nonzero;stroke:none"
           d="m 381.87,322.126 h -4.111 v 4.111 h 4.111 z" /><path
           id="path296"
           style="fill:#ffffff;fill-opacity:1;fill-rule:nonzero;stroke:none"
           d="m 295.419,152.232 h -4.111 v 4.11 h 4.111 z" /><path
           id="path298"
           style="fill:#ffffff;fill-opacity:1;fill-rule:nonzero;stroke:none"
           d="m 309.514,152.232 h -4.111 v 4.11 h 4.111 z" /><path
           id="path300"
           style="fill:#ffffff;fill-opacity:1;fill-rule:nonzero;stroke:none"
           d="m 323.609,152.232 h -4.111 v 4.11 h 4.111 z" /><path
           id="path302"
           style="fill:#ffffff;fill-opacity:1;fill-rule:nonzero;stroke:none"
           d="m 121.026,267.989 h -2.193 v 2.192 h 2.193 z" /><path
           id="path304"
           style="fill:#ffffff;fill-opacity:1;fill-rule:nonzero;stroke:none"
           d="m 128.543,267.989 h -2.193 v 2.192 h 2.193 z" /><path
           id="path306"
           style="fill:#ffffff;fill-opacity:1;fill-rule:nonzero;stroke:none"
           d="m 136.06,267.989 h -2.192 v 2.192 h 2.192 z" /><path
           id="path308"
           style="fill:#ffffff;fill-opacity:1;fill-rule:nonzero;stroke:none"
           d="m 426.234,269.304 h -36.459 v 3.571 h 36.459 z" /><path
           id="path310"
           style="fill:#287dd1;fill-opacity:1;fill-rule:nonzero;stroke:none"
           d="m 400.594,263.008 h -10.819 v 3.571 h 10.819 z" /><g
           transform="translate(95.6539,265.5456)"
           id="g312"><path
             id="path314"
             style="fill:#1ae5ff;fill-opacity:1;fill-rule:nonzero;stroke:none"
             d="m 0,0 h -7.893 v 7.894 h -7.33 V 0 h -7.893 v -7.33 h 7.893 v -7.893 h 7.33 v 7.893 l 7.893,0 z" /></g><g
           transform="translate(74.5319,243.5573)"
           id="g316"><path
             id="path318"
             style="fill:#2889db;fill-opacity:1;fill-rule:nonzero;stroke:none"
             d="M 0,0 H -4.813 V 4.812 H -9.282 V 0 h -4.813 v -4.47 h 4.813 v -4.812 h 4.469 V -4.47 H 0 Z" /></g><g
           transform="translate(206.2667,228.9831)"
           id="g320"><path
             id="path322"
             style="fill:#284d89;fill-opacity:1;fill-rule:nonzero;stroke:none"
             d="m 0,0 c -3.553,0 -6.433,2.88 -6.433,6.433 0,3.552 2.88,6.432 6.433,6.432 3.553,0 6.433,-2.88 6.433,-6.432 C 6.433,2.88 3.553,0 0,0 m 0,18.776 c -6.817,0 -12.344,-5.526 -12.344,-12.343 0,-6.818 5.527,-12.344 12.344,-12.344 6.817,0 12.344,5.526 12.344,12.344 0,6.817 -5.527,12.343 -12.344,12.343" /></g><g
           transform="translate(197.8639,236.6325)"
           id="g324"><path
             id="path326"
             style="fill:#289df2;fill-opacity:1;fill-rule:nonzero;stroke:none"
             d="m 0,0 c 1.146,0 2.152,0.683 2.673,1.704 1.064,2.084 3.229,3.512 5.73,3.512 2.501,0 4.666,-1.428 5.729,-3.512 C 14.654,0.683 15.659,0 16.806,0 c 2.16,0 3.638,2.264 2.688,4.204 -2.007,4.1 -6.219,6.923 -11.091,6.923 C 3.53,11.127 -0.682,8.304 -2.688,4.203 -3.638,2.264 -2.161,0 0,0" /></g><g
           transform="translate(245.7765,235.4157)"
           id="g328"><path
             id="path330"
             style="fill:#284d89;fill-opacity:1;fill-rule:nonzero;stroke:none"
             d="m 0,0 c 0,-3.553 -2.88,-6.433 -6.433,-6.433 -3.553,0 -6.433,2.88 -6.433,6.433 0,3.553 2.88,6.433 6.433,6.433 C -2.88,6.433 0,3.553 0,0 m -18.777,0 c 0,-6.817 5.527,-12.344 12.344,-12.344 6.817,0 12.344,5.527 12.344,12.344 0,6.817 -5.527,12.344 -12.344,12.344 -6.817,0 -12.344,-5.527 -12.344,-12.344" /></g><g
           transform="translate(238.1266,227.0124)"
           id="g332"><path
             id="path334"
             style="fill:#ff4d6b;fill-opacity:1;fill-rule:nonzero;stroke:none"
             d="m 0,0 c 0,1.147 -0.682,2.152 -1.704,2.674 -2.084,1.063 -3.512,3.228 -3.512,5.729 0,2.501 1.428,4.666 3.512,5.73 C -0.682,14.654 0,15.66 0,16.807 c 0,2.16 -2.263,3.637 -4.204,2.688 -4.1,-2.007 -6.923,-6.219 -6.923,-11.092 0,-4.872 2.823,-9.085 6.923,-11.091 C -2.263,-3.638 0,-2.16 0,0" /></g><path
           id="path336"
           style="fill:none;stroke:#289df2;stroke-width:1.12800002;stroke-linecap:butt;stroke-linejoin:miter;stroke-miterlimit:10;stroke-dasharray:none;stroke-opacity:1"
           d="m 171.017,230.026 h -22.553 v 54.125 h 22.553 z" /><path
           id="path338"
           style="fill:#1ae5ff;fill-opacity:1;fill-rule:nonzero;stroke:none"
           d="m 158.237,271.777 h -6.578 v 1.944 h 6.578 z" /><path
           id="path340"
           style="fill:#1ae5ff;fill-opacity:1;fill-rule:nonzero;stroke:none"
           d="m 158.237,267.44 h -6.578 v 1.944 h 6.578 z" /><path
           id="path342"
           style="fill:#1ae5ff;fill-opacity:1;fill-rule:nonzero;stroke:none"
           d="m 158.237,263.103 h -6.578 v 1.944 h 6.578 z" /><path
           id="path344"
           style="fill:#1ae5ff;fill-opacity:1;fill-rule:nonzero;stroke:none"
           d="m 158.237,240.55 h -6.578 v 1.944 h 6.578 z" /><path
           id="path346"
           style="fill:#1ae5ff;fill-opacity:1;fill-rule:nonzero;stroke:none"
           d="m 161.244,256.742 h -9.584 v 1.944 h 9.584 z" /><path
           id="path348"
           style="fill:#ffffff;fill-opacity:1;fill-rule:nonzero;stroke:none"
           d="m 161.244,252.404 h -9.584 v 1.944 h 9.584 z" /><path
           id="path350"
           style="fill:#ffffff;fill-opacity:1;fill-rule:nonzero;stroke:none"
           d="m 161.244,248.068 h -9.584 v 1.944 h 9.584 z" /><path
           id="path352"
           style="fill:#289df2;fill-opacity:1;fill-rule:nonzero;stroke:none"
           d="M 96.218,187.927 H 67.652 v 28.566 h 28.566 z" /><path
           id="path354"
           style="fill:none;stroke:#289df2;stroke-width:1.12800002;stroke-linecap:butt;stroke-linejoin:miter;stroke-miterlimit:10;stroke-dasharray:none;stroke-opacity:1"
           d="M 81.183,181.162 H 52.617 v 28.566 h 28.566 z" /><path
           id="path356"
           style="fill:none;stroke:#289df2;stroke-width:1.12800002;stroke-linecap:butt;stroke-linejoin:miter;stroke-miterlimit:10;stroke-dasharray:none;stroke-opacity:1"
           d="m 419.468,121.774 h -12.027 v 12.028 h 12.027 z" /><g
           transform="translate(263.1051,152.7839)"
           id="g358"><path
             id="path360"
             style="fill:none;stroke:#ffffff;stroke-width:1.12800002;stroke-linecap:butt;stroke-linejoin:miter;stroke-miterlimit:10;stroke-dasharray:none;stroke-opacity:1"
             d="m 0,0 h 10.148 l 5.639,-5.638 h 58.636 l 9.021,9.021 h 31.574" /></g><g
           transform="translate(263.1051,152.6432)"
           id="g362"><path
             id="path364"
             style="fill:none;stroke:#ffffff;stroke-width:1.12800002;stroke-linecap:butt;stroke-linejoin:miter;stroke-miterlimit:10;stroke-dasharray:none;stroke-opacity:1"
             d="m 0,0 c 0,-1.635 -1.325,-2.96 -2.96,-2.96 -1.635,0 -2.96,1.325 -2.96,2.96 0,1.635 1.325,2.96 2.96,2.96 C -1.325,2.96 0,1.635 0,0 Z" /></g><g
           transform="translate(384.1364,156.3073)"
           id="g366"><path
             id="path368"
             style="fill:none;stroke:#ffffff;stroke-width:1.12800002;stroke-linecap:butt;stroke-linejoin:miter;stroke-miterlimit:10;stroke-dasharray:none;stroke-opacity:1"
             d="m 0,0 c 0,-1.635 -1.325,-2.96 -2.96,-2.96 -1.635,0 -2.96,1.325 -2.96,2.96 0,1.635 1.325,2.96 2.96,2.96 C -1.325,2.96 0,1.635 0,0 Z" /></g><g
           transform="translate(420.9723,311.966)"
           id="g370"><path
             id="path372"
             style="fill:#289df2;fill-opacity:1;fill-rule:nonzero;stroke:none"
             d="m 0,0 c 0,-2.076 -1.683,-3.759 -3.759,-3.759 -2.076,0 -3.759,1.683 -3.759,3.759 0,2.076 1.683,3.759 3.759,3.759 C -1.683,3.759 0,2.076 0,0" /></g><g
           transform="translate(73.6652,165.3757)"
           id="g374"><path
             id="path376"
             style="fill:#ff4d6b;fill-opacity:1;fill-rule:nonzero;stroke:none"
             d="m 0,0 c 0,-2.076 -1.683,-3.759 -3.758,-3.759 -2.076,0 -3.759,1.683 -3.759,3.759 0,2.076 1.683,3.759 3.759,3.759 C -1.683,3.759 0,2.076 0,0" /></g><g
           transform="translate(90.9557,151.4684)"
           id="g378"><path
             id="path380"
             style="fill:#ff4d6b;fill-opacity:1;fill-rule:nonzero;stroke:none"
             d="m 0,0 c 0,-3.633 -2.945,-6.578 -6.578,-6.578 -3.633,0 -6.578,2.945 -6.578,6.578 0,3.633 2.945,6.577 6.578,6.577 C -2.945,6.577 0,3.633 0,0" /></g><path
           id="path382"
           style="fill:none;stroke:#289df2;stroke-width:1.12800002;stroke-linecap:butt;stroke-linejoin:miter;stroke-miterlimit:10;stroke-dasharray:none;stroke-opacity:1"
           d="m 314.976,123.278 h -26.312 v 6.014 h 26.312 z" /><path
           id="path384"
           style="fill:none;stroke:#289df2;stroke-width:1.12800002;stroke-linecap:butt;stroke-linejoin:miter;stroke-miterlimit:10;stroke-dasharray:none;stroke-opacity:1"
           d="m 346.361,112.002 h -57.696 v 6.014 h 57.696 z" /><g
           transform="translate(127.4806,123.5319)"
           id="g386"><path
             id="path388"
             style="fill:none;stroke:#289df2;stroke-width:1.12800002;stroke-linecap:round;stroke-linejoin:round;stroke-miterlimit:10;stroke-dasharray:none;stroke-opacity:1"
             d="M 0,0 -6.377,-6.377" /></g><g
           transform="translate(133.612,123.5319)"
           id="g390"><path
             id="path392"
             style="fill:none;stroke:#289df2;stroke-width:1.12800002;stroke-linecap:round;stroke-linejoin:round;stroke-miterlimit:10;stroke-dasharray:none;stroke-opacity:1"
             d="M 0,0 -6.376,-6.377" /></g><g
           transform="translate(139.7438,123.5319)"
           id="g394"><path
             id="path396"
             style="fill:none;stroke:#289df2;stroke-width:1.12800002;stroke-linecap:round;stroke-linejoin:round;stroke-miterlimit:10;stroke-dasharray:none;stroke-opacity:1"
             d="M 0,0 -6.377,-6.377" /></g><g
           transform="translate(145.8756,123.5319)"
           id="g398"><path
             id="path400"
             style="fill:none;stroke:#289df2;stroke-width:1.12800002;stroke-linecap:round;stroke-linejoin:round;stroke-miterlimit:10;stroke-dasharray:none;stroke-opacity:1"
             d="M 0,0 -6.377,-6.377" /></g><g
           transform="translate(152.007,123.5319)"
           id="g402"><path
             id="path404"
             style="fill:none;stroke:#289df2;stroke-width:1.12800002;stroke-linecap:round;stroke-linejoin:round;stroke-miterlimit:10;stroke-dasharray:none;stroke-opacity:1"
             d="M 0,0 -6.377,-6.377" /></g></g></g></g></svg>