<?xml version="1.0" encoding="utf-8"?>
<!-- Generator: Adobe Illustrator 23.0.1, SVG Export Plug-In . SVG Version: 6.00 Build 0)  -->
<svg version="1.1" id="Layer_1" xmlns="http://www.w3.org/2000/svg" xmlns:xlink="http://www.w3.org/1999/xlink" x="0px" y="0px"
	 viewBox="0 0 100 100" style="enable-background:new 0 0 100 100;" xml:space="preserve">
<path d="M90,80v10c0,1.1-0.9,2-2,2H78H68H58H48H38H28H12c-1.1,0-2-0.9-2-2V10c0-1.1,0.9-2,2-2h6c1.1,0,2,0.9,2,2s-0.9,2-2,2h-4v6h4
	c1.1,0,2,0.9,2,2s-0.9,2-2,2h-4v6h4c1.1,0,2,0.9,2,2s-0.9,2-2,2h-4v6h4c1.1,0,2,0.9,2,2s-0.9,2-2,2h-4v6h4c1.1,0,2,0.9,2,2
	s-0.9,2-2,2h-4v6h4c1.1,0,2,0.9,2,2s-0.9,2-2,2h-4v6h4c1.1,0,2,0.9,2,2s-0.9,2-2,2h-4v6h4c1.1,0,2,0.9,2,2s-0.9,2-2,2h-4v6h12V54
	c0-3.86,3.14-7,7-7s7,3.14,7,7v34h6V35c0-3.86,3.14-7,7-7c3.86,0,7,3.14,7,7v53h6V25c0-3.86,3.14-7,7-7s7,3.14,7,7v63h6v-8
	c0-1.1,0.9-2,2-2S90,78.9,90,80z"/>
</svg>
