<?xml version="1.0" encoding="utf-8"?>
<!-- Generator: Adobe Illustrator 24.0.0, SVG Export Plug-In . SVG Version: 6.00 Build 0)  -->
<svg version="1.1" id="Layer_1" xmlns="http://www.w3.org/2000/svg" xmlns:xlink="http://www.w3.org/1999/xlink" x="0px" y="0px"
	 viewBox="0 0 100 100" style="enable-background:new 0 0 100 100;" xml:space="preserve">
<path d="M83.1,40.8C87.8,38,91,32.8,91,27c0-8.8-7.2-16-16-16c-3.5,0-6.8,1.1-9.4,3.1C62.5,8.7,56.7,5,50,5s-12.5,3.7-15.6,9.1
	c-2.6-2-5.9-3.1-9.4-3.1c-8.8,0-16,7.2-16,16c0,5.8,3.2,11,7.9,13.8C9.9,43.9,5,50.9,5,59v20c0,1.1,0.9,2,2,2h16v12c0,1.1,0.9,2,2,2
	h50c1.1,0,2-0.9,2-2V81h16c1.1,0,2-0.9,2-2V59C95,50.9,90.1,43.9,83.1,40.8z M66.9,40.8c-0.6,0.3-1.2,0.6-1.8,0.9
	c-1.9-1.3-3.9-2.3-6.1-3.1c1.1-0.6,2.1-1.4,3-2.2C63.3,38.1,65,39.6,66.9,40.8z M38,36.3c0.9,0.8,1.9,1.6,3,2.2
	c-2.2,0.8-4.2,1.8-6.1,3.1c-0.6-0.3-1.2-0.6-1.8-0.9C35,39.6,36.7,38.1,38,36.3z"/>
</svg>
