<?xml version="1.0" encoding="utf-8"?>
<!-- Generator: Adobe Illustrator 23.0.1, SVG Export Plug-In . SVG Version: 6.00 Build 0)  -->
<svg version="1.1" id="Layer_1" xmlns="http://www.w3.org/2000/svg" xmlns:xlink="http://www.w3.org/1999/xlink" x="0px" y="0px"
	 viewBox="0 0 100 100" style="enable-background:new 0 0 100 100;" xml:space="preserve">
<path d="M9,88c0,1.1,0.9,2,2,2h78c1.1,0,2-0.9,2-2V30H9V88z M31,52h16c1.1,0,2,0.9,2,2c0,1.1-0.9,2-2,2H31c-1.1,0-2-0.9-2-2
	C29,52.9,29.9,52,31,52z M17,40.8l-1.4-1.4c-0.8-0.8-0.8-2,0-2.8c0.8-0.8,2-0.8,2.8,0l8,8c0.8,0.8,0.8,2,0,2.8l-8,8
	C18,55.8,17.5,56,17,56s-1-0.2-1.4-0.6c-0.8-0.8-0.8-2,0-2.8l1.4-1.4l5.2-5.2L17,40.8z M89,10H11c-1.1,0-2,0.9-2,2v14h82V12
	C91,10.9,90.1,10,89,10z M17,20c-1.1,0-2-0.9-2-2c0-1.1,0.9-2,2-2s2,0.9,2,2C19,19.1,18.1,20,17,20z M27,20c-1.1,0-2-0.9-2-2
	c0-1.1,0.9-2,2-2s2,0.9,2,2C29,19.1,28.1,20,27,20z M37,20c-1.1,0-2-0.9-2-2c0-1.1,0.9-2,2-2s2,0.9,2,2C39,19.1,38.1,20,37,20z"/>
</svg>
