<?xml version="1.0" encoding="utf-8"?>
<!-- Generator: Adobe Illustrator 21.0.2, SVG Export Plug-In . SVG Version: 6.00 Build 0)  -->
<svg version="1.1" id="Layer_1" xmlns="http://www.w3.org/2000/svg" xmlns:xlink="http://www.w3.org/1999/xlink" x="0px" y="0px"
	 viewBox="0 0 100 100" style="enable-background:new 0 0 100 100;" xml:space="preserve">
<g>
	<path d="M30.9,60.7l9.5,3.9c0.3,0.1,0.7,0.2,1.1,0.1l15.7-2.6c5.1-0.8,10,1.7,12.4,5.9c0.9-0.6,1.7-1.2,2.5-1.9l5.1-5.4
		c4-5.4,6.4-12.1,6.4-19.4c0-17.7-13.9-32-31-32s-31,14.3-31,32c0,6.8,2.1,13.1,5.6,18.3C28.4,59.8,29.7,60.2,30.9,60.7z M27.5,38.4
		c0-2.9,1.2-5.5,3.2-7.3c-0.1-0.5-0.2-1.1-0.2-1.7c0-3.9,3.1-7,7-7s7,3.1,7,7c0,0.6-0.1,1.1-0.2,1.7c0.7,0.6,1.2,1.3,1.7,2.1
		c1.6-1.7,3.9-2.8,6.5-2.8s4.8,1.1,6.5,2.8c0.5-0.8,1.1-1.5,1.7-2.1c-0.1-0.5-0.2-1.1-0.2-1.7c0-3.9,3.1-7,7-7s7,3.1,7,7
		c0,0.6-0.1,1.1-0.2,1.7c2,1.8,3.2,4.4,3.2,7.3v1c0,2.8-2.2,5-5,5h-10c-0.7,0-1.3-0.1-1.8-0.4c1.8,2,2.8,4.5,2.8,7.4
		c0,2.8-2.2,5-5,5h-12c-2.8,0-5-2.2-5-5c0-2.8,1.1-5.4,2.8-7.4c-0.6,0.2-1.2,0.4-1.8,0.4h-10c-2.8,0-5-2.2-5-5V38.4z"/>
	<path d="M32.5,40.4h10c0.5,0,1-0.5,1-1v-1c0-1.4-0.5-2.8-1.3-3.8c-1.2,1.1-2.9,1.8-4.7,1.8s-3.4-0.7-4.7-1.8
		c-0.8,1-1.3,2.4-1.3,3.8v1C31.5,39.9,31.9,40.4,32.5,40.4z"/>
	<path d="M62.5,40.4h10c0.5,0,1-0.5,1-1v-1c0-1.4-0.5-2.8-1.3-3.8c-1.2,1.1-2.9,1.8-4.7,1.8s-3.4-0.7-4.7-1.8
		c-0.8,1-1.3,2.4-1.3,3.8v1C61.5,39.9,61.9,40.4,62.5,40.4z"/>
	<path d="M80.8,62.7l-10.3,11c-0.2,0.2-0.4,0.3-0.6,0.5v0c-0.2,0.1-0.4,0.1-0.6,0.2l-16.8,2.8c-1.1,0.2-2.1-0.6-2.3-1.7
		c-0.2-1.1,0.5-2.1,1.6-2.3l14.6-2.4c-1.4-3.2-5-5.3-8.6-4.7l-15.7,2.6c-1.1,0.2-2.2,0-3.2-0.4l-9.5-3.9c-2-0.8-4.2-1-6.3-0.7l-12,2
		c-0.5,0.1-1,0.4-1.3,0.8c-0.3,0.4-0.4,1-0.4,1.5l3.4,20.7c0.2,1.1,1.2,1.8,2.3,1.7l15-2.5c0.3-0.1,0.7-0.1,1-0.1
		c0.5,0,0.9,0,1.4,0.2l11.1,2.6c0.3,0.1,0.5,0.1,0.8,0l22.8-3.8c0.4-0.1,0.9-0.3,1.2-0.7l22.1-25C87.4,59.4,83.4,60,80.8,62.7z"/>
	<path d="M46.5,52.4h12c0.5,0,1-0.5,1-1c0-1.8-0.7-3.4-1.8-4.7c-1.5,1.1-3.3,1.7-5.2,1.7s-3.7-0.6-5.2-1.7c-1.1,1.2-1.8,2.9-1.8,4.7
		C45.5,51.9,45.9,52.4,46.5,52.4z"/>
	<circle cx="52.5" cy="39.4" r="5"/>
	<circle cx="37.5" cy="29.4" r="3"/>
	<circle cx="67.5" cy="29.4" r="3"/>
</g>
</svg>
