<svg xmlns="http://www.w3.org/2000/svg" xmlns:xlink="http://www.w3.org/1999/xlink" version="1.1" style="" xml:space="preserve" width="100" height="100"><rect id="backgroundrect" width="100%" height="100%" x="0" y="0" fill="none" stroke="none"/>

<g class="currentLayer" style=""><title>Layer 1</title><path d="M59,17H5V7c0-1.1,0.9-2,2-2h52V17z M95,7v10H63V5h30C94.1,5,95,5.9,95,7z M71,13c0-0.5-0.2-1-0.6-1.4  c-0.1-0.1-0.2-0.2-0.3-0.2s-0.2-0.1-0.3-0.2c-0.1,0-0.2-0.1-0.4-0.1c-0.3,0-0.5,0-0.8,0c-0.1,0-0.2,0.1-0.4,0.1  c-0.1,0.1-0.2,0.1-0.3,0.2s-0.2,0.2-0.3,0.2c-0.1,0.1-0.2,0.2-0.2,0.3c-0.1,0.1-0.1,0.2-0.2,0.3c-0.1,0.1-0.1,0.2-0.1,0.4  c0,0.1,0,0.3,0,0.4c0,0.5,0.2,1,0.6,1.4C68,14.8,68.5,15,69,15c0.1,0,0.3,0,0.4,0c0.1,0,0.2-0.1,0.4-0.1c0.1,0,0.2-0.1,0.3-0.2  s0.2-0.1,0.3-0.2C70.8,14,71,13.5,71,13z M79,13c0-0.5-0.2-1-0.6-1.4c-0.1-0.1-0.2-0.2-0.3-0.2s-0.2-0.1-0.3-0.2  c-0.1,0-0.2-0.1-0.4-0.1c-0.7-0.1-1.3,0.1-1.8,0.5C75.2,12,75,12.5,75,13c0,0.5,0.2,1,0.6,1.4C76,14.8,76.5,15,77,15  c0.1,0,0.3,0,0.4,0c0.1,0,0.2-0.1,0.4-0.1c0.1,0,0.2-0.1,0.3-0.2s0.2-0.1,0.3-0.2C78.8,14,79,13.5,79,13z M87,13  c0-0.5-0.2-1-0.6-1.4c-0.5-0.5-1.1-0.7-1.8-0.5c-0.1,0-0.3,0.1-0.4,0.1c-0.1,0.1-0.2,0.1-0.3,0.2s-0.2,0.2-0.3,0.2  C83.2,12,83,12.5,83,13c0,0.1,0,0.3,0,0.4c0,0.1,0.1,0.2,0.1,0.4c0,0.1,0.1,0.2,0.2,0.3c0.1,0.1,0.1,0.2,0.2,0.3  c0.1,0.1,0.2,0.2,0.3,0.2s0.2,0.1,0.3,0.2s0.2,0.1,0.4,0.1c0.1,0,0.3,0,0.4,0c0.5,0,1-0.2,1.4-0.6C86.8,14,87,13.5,87,13z M5,21h90  v72c0,1.1-0.9,2-2,2H7c-1.1,0-2-0.9-2-2V21z M38.8,59l-7.1,7.1c-0.3,0.3-0.5,0.7-0.6,1.1L29.3,79H19c-1.1,0-2,0.9-2,2  c0,1.1,0.9,2,2,2h12c0.1,0,0.2,0,0.3,0l13.5-2.1c0.4-0.1,0.8-0.3,1.1-0.6l28.5-28.5l5.7-5.7c3.9-3.9,3.9-10.3,0-14.2  C78.2,30,75.6,29,73,29c-2.2,0-4.3,0.7-6,2H19c-1.1,0-2,0.9-2,2c0,1.1,0.9,2,2,2h43.8l-20,20H19c-1.1,0-2,0.9-2,2c0,1.1,0.9,2,2,2  H38.8z M77.2,43.3c2.4-2.4,2.4-6.2,0-8.6C76.1,33.6,74.6,33,73,33c-1.6,0-3.1,0.6-4.3,1.8l-2.8,2.9l8.5,8.5L77.2,43.3z M71.5,49  L63,40.5l-28,28l-1.6,10.2L43.6,77L71.5,49z" id="svg_1" class="selected" fill="#009900" fill-opacity="1"/></g></svg>