<svg xmlns="http://www.w3.org/2000/svg" xmlns:xlink="http://www.w3.org/1999/xlink" version="1.1" style="enable-background:new 0 0 512 512;" xml:space="preserve" width="512" height="512"><rect id="backgroundrect" width="100%" height="100%" x="0" y="0" fill="none" stroke="none"/>























<g class="currentLayer" style=""><title>Layer 1</title><g id="svg_1" class="" fill="#009900" fill-opacity="1">
	<g id="svg_2" fill="#009900" fill-opacity="1">
		<path d="M0,332v15c0,24.814,21.186,45,46,45h196c0-21.354,4.634-41.592,12.715-60H0z" id="svg_3" fill="#009900" fill-opacity="1"/>
	</g>
</g><g id="svg_4" class="" fill="#009900" fill-opacity="1">
	<g id="svg_5" fill="#009900" fill-opacity="1">
		<path d="M245.032,422H182v30h-15c-24.853,0-45,20.147-45,45c0,8.284,6.716,15,15,15h165.928    C273.84,490.342,252.53,458.786,245.032,422z" id="svg_6" fill="#009900" fill-opacity="1"/>
	</g>
</g><g id="svg_7" class="" fill="#009900" fill-opacity="1">
	<g id="svg_8" fill="#009900" fill-opacity="1">
		<path d="M392,377c-8.276,0-15,6.724-15,15s6.724,15,15,15s15-6.724,15-15S400.276,377,392,377z" id="svg_9" fill="#009900" fill-opacity="1"/>
	</g>
</g><g id="svg_10" class="" fill="#009900" fill-opacity="1">
	<g id="svg_11" fill="#009900" fill-opacity="1">
		<path d="M392,272c-66.275,0-120,53.725-120,120c0,66.273,53.725,120,120,120s120-53.727,120-120C512,325.725,458.275,272,392,272z     M392,437c-24.814,0-45-20.186-45-45c0-24.814,20.186-45,45-45c24.814,0,45,20.186,45,45C437,416.814,416.814,437,392,437z" id="svg_12" fill="#009900" fill-opacity="1"/>
	</g>
</g><g id="svg_13" class="" fill="#009900" fill-opacity="1">
	<g id="svg_14" fill="#009900" fill-opacity="1">
		<polygon points="152.22,93.23 106.037,121.057 152,148.832 198.033,121.015   " id="svg_15" fill="#009900" fill-opacity="1"/>
	</g>
</g><g id="svg_16" class="" fill="#009900" fill-opacity="1" stroke="#abecab" stroke-opacity="1">
	<g id="svg_17" fill="#009900" fill-opacity="1" stroke="#abecab" stroke-opacity="1">
		<polygon points="92,147.624 92,203.211 137,230.413 137,174.822   " id="svg_18" fill="#009900" fill-opacity="1" stroke="#abecab" stroke-opacity="1"/>
	</g>
</g><g id="svg_19" class="" fill="#009900" fill-opacity="1">
	<g id="svg_20" fill="#009900" fill-opacity="1">
		<polygon points="167,174.815 167,230.413 212,203.211 212,147.622   " id="svg_21" fill="#009900" fill-opacity="1"/>
	</g>
</g><g id="svg_22" class="" fill="#009900" fill-opacity="1">
	<g id="svg_23" fill="#009900" fill-opacity="1">
		<path d="M467,0H46C21.186,0,0,21.186,0,46v256h272.767c27.409-36.209,70.426-60,119.233-60s91.824,23.791,119.233,60H512V46    C512,21.186,491.814,0,467,0z M242.001,211.678L242.001,211.678c-0.001,5.259-2.755,10.122-7.237,12.832l-75,45.322    C156.755,271.088,155.018,272,152,272c-3.001,0-4.753-0.912-7.764-2.168l-75-45.322C64.754,221.8,62,216.937,62,211.678v-90.645    c1.002-5.7,1.588-9.056,6.94-12.512c3.021-1.952,78.602-47.666,75.575-45.657c4.761-2.871,10.752-2.886,15.513,0.015    l74.751,45.322c4.666,4.801,6.621,4.872,7.004,12.004c0.016,0.293,0.218,0.533,0.218,0.828V211.678z M407,182h-60    c-8.291,0-15-6.709-15-15s6.709-15,15-15h60c8.291,0,15,6.709,15,15S415.291,182,407,182z M407,122h-60c-8.291,0-15-6.709-15-15    s6.709-15,15-15h60c8.291,0,15,6.709,15,15S415.291,122,407,122z" id="svg_24" fill="#009900" fill-opacity="1"/>
	</g>
</g><g id="svg_25">
</g><g id="svg_26">
</g><g id="svg_27">
</g><g id="svg_28">
</g><g id="svg_29">
</g><g id="svg_30">
</g><g id="svg_31">
</g><g id="svg_32">
</g><g id="svg_33">
</g><g id="svg_34">
</g><g id="svg_35">
</g><g id="svg_36">
</g><g id="svg_37">
</g><g id="svg_38">
</g><g id="svg_39">
</g></g></svg>