<svg xmlns="http://www.w3.org/2000/svg" xmlns:xlink="http://www.w3.org/1999/xlink" version="1.1" style="enable-background:new 0 0 100 100;" xml:space="preserve" width="100" height="100"><rect id="backgroundrect" width="100%" height="100%" x="0" y="0" fill="none" stroke="none"/>

<g class="currentLayer" style=""><title>Layer 1</title><path d="M85,14H15c-3.3,0-6,2.7-6,6v42h82V20C91,16.7,88.3,14,85,14z M83,54c0,1.1-0.9,2-2,2s-2-0.9-2-2V34.8l-7,2.3v10.6  c0,0.9-0.5,1.6-1.4,1.9l-19,6.3C51.4,56,51.2,56,51,56s-0.4,0-0.6-0.1l-19-6.3c-0.8-0.3-1.4-1-1.4-1.9V37.1l-9.6-3.2  c-0.8-0.3-1.4-1-1.4-1.9s0.5-1.6,1.4-1.9l30-10c0.4-0.1,0.8-0.1,1.3,0l30,10c0,0,0,0,0,0c0.2,0.1,0.3,0.1,0.5,0.2c0,0,0.1,0,0.1,0.1  c0.1,0.1,0.2,0.2,0.3,0.3c0,0,0,0,0,0.1c0.1,0.2,0.2,0.3,0.2,0.5c0,0,0,0.1,0,0.1C83,31.6,83,31.8,83,32V54z M9,66h82  c0,3.3-2.7,6-6,6H15C11.7,72,9,69.3,9,66z M74,84c0,1.1-0.9,2-2,2H28c-1.1,0-2-0.9-2-2c0-1.1,0.9-2,2-2h11v-6h22v6h11  C73.1,82,74,82.9,74,84z M51.6,43.9L68,38.4v7.8l-17,5.7l-17-5.7v-7.8l16.4,5.5C50.6,44,50.8,44,51,44S51.4,44,51.6,43.9z M51,24.1  L74.7,32L51,39.9L27.3,32L51,24.1z" id="svg_1" class="" fill-opacity="1" fill="#e11779"/></g></svg>