<svg xmlns="http://www.w3.org/2000/svg" xmlns:xlink="http://www.w3.org/1999/xlink" version="1.1" style="enable-background:new 0 0 100 100;" xml:space="preserve" width="100" height="100"><rect id="backgroundrect" width="100%" height="100%" x="0" y="0" fill="none" stroke="none"/>

<g class="currentLayer" style=""><title>Layer 1</title><g id="svg_1" class="" fill="#009900" fill-opacity="1">
	<path d="M49.6,18.2L12,40.2l7.1,2.2v17.5c0,0.2,0,0.3,0.1,0.5c-1.2,0.7-2.1,2-2.1,3.5c0,1,0.3,1.8,0.9,2.5l-2,10.8   c-0.5,2.5,1.4,4.7,3.9,4.7h2.4c2.5,0,4.4-2.3,3.9-4.7l-2-10.8c0.6-0.7,0.9-1.6,0.9-2.5c0-1.5-0.8-2.8-2.1-3.5   c0-0.2,0.1-0.3,0.1-0.5V43.6l4.3,1.3l1.1-4.1c0.6-2.3,2.5-4,4.9-4.4c11.1-1.8,22.4-1.8,33.5,0c2.4,0.4,4.3,2.1,4.9,4.4l1,3.9   L88,40.2L49.6,18.2z" id="svg_2" fill="#009900" fill-opacity="1"/>
	<path d="M67.8,41.9c-0.2-0.8-0.8-1.3-1.6-1.5c-5.3-0.9-10.7-1.3-16.1-1.3S39.3,39.6,34,40.4c-0.8,0.1-1.4,0.7-1.6,1.5L28,58.4   c-0.1,0.5-0.1,1.1,0.2,1.5c0.3,0.5,0.7,0.8,1.2,0.9l20.1,4.8c0.3,0.1,0.6,0.1,0.9,0l20.1-4.8c0.5-0.1,1-0.5,1.2-0.9   c0.3-0.5,0.3-1,0.2-1.5L67.8,41.9z" id="svg_3" fill="#009900" fill-opacity="1"/>
</g></g></svg>