<svg xmlns="http://www.w3.org/2000/svg" xmlns:xlink="http://www.w3.org/1999/xlink" version="1.1" style="" xml:space="preserve" width="100" height="100"><rect id="backgroundrect" width="100%" height="100%" x="0" y="0" fill="none" stroke="none"/>

<g class="currentLayer" style=""><title>Layer 1</title><path d="M85,44v23c0,4.3-2.8,8-6.6,9.4C74.5,73,69.5,71,64,71h-3c8.6-5.5,14-15,14-25.2c0-4-0.8-7.9-2.4-11.6  c-0.3-0.6-0.8-1.1-1.5-1.2c-0.7-0.1-1.3,0.1-1.8,0.6C65.5,37.7,58,40.2,50,40.2s-15.5-2.5-19.3-6.6c-0.5-0.5-1.1-0.7-1.8-0.6  c-0.7,0.1-1.2,0.6-1.5,1.2c-1.6,3.7-2.4,7.6-2.4,11.6C25,56,30.4,65.5,39,71h-3c-5.5,0-10.5,2-14.4,5.4C17.8,75,15,71.3,15,67V44  C15,24.7,30.7,9,50,9S85,24.7,85,44z M50,71L50,71c-1,0-2-0.2-2.9-0.5C36.3,66.8,29,56.8,29,45.8c0-2.5,0.4-5,1.1-7.3  c4.9,3.7,12,5.8,19.9,5.8s15.1-2.1,19.9-5.8c0.7,2.4,1.1,4.8,1.1,7.3c0,11.1-7.3,21-18.1,24.8C52,70.8,51,71,50,71z M50,65  c1.9,0,3.6-0.7,5-2c0.8-0.8,0.8-2.1,0-2.8c-0.8-0.8-2-0.8-2.8,0c-1.1,1.1-3.1,1.1-4.2,0c-0.8-0.8-2-0.8-2.8,0c-0.8,0.8-0.8,2,0,2.8  C46.4,64.3,48.1,65,50,65z M30.2,76c-6.5,2.2-11.3,8-12,15h20.3C33.9,87.6,30.8,82.2,30.2,76z M64,75H36c-0.7,0-1.3,0-1.9,0.1  C34.8,84,41.7,91,50,91s15.2-7,15.9-15.9C65.3,75,64.7,75,64,75z M69.8,76c-0.7,6.2-3.8,11.6-8.3,15h20.3C81.1,84,76.3,78.2,69.8,76  z" id="svg_1" class="" fill="#e01879" fill-opacity="1"/></g></svg>