<svg xmlns="http://www.w3.org/2000/svg" xmlns:xlink="http://www.w3.org/1999/xlink" version="1.1" style="enable-background:new 0 0 100 100;" xml:space="preserve" width="100" height="100"><rect id="backgroundrect" width="100%" height="100%" x="0" y="0" fill="none" stroke="none"/>

<g class="currentLayer" style=""><title>Layer 1</title><path d="M23.5,76.4c3.1,2.5,6.5,4.5,10.3,6l-4.4,7.1c-0.6,0.9-1.6,1.5-2.7,1.5c-1.7,0-3.2-1.4-3.2-3.2V76.4z M65.7,89.5  c0.6,0.9,1.6,1.5,2.7,1.5c1.7,0,3.2-1.4,3.2-3.2V76.4c-3.1,2.5-6.5,4.5-10.3,6L65.7,89.5z M47.5,27c-11,0-20,9-20,20  c0,11,9,20,20,20s20-9,20-20c0-4.7-1.6-9-4.4-12.4l-7.2,7c1,1.6,1.6,3.4,1.6,5.4c0,5.5-4.5,10-10,10s-10-4.5-10-10s4.5-10,10-10  c2.1,0,4,0.6,5.6,1.7l7.2-7C56.9,28.8,52.4,27,47.5,27z M77.3,31.5c-0.1,0-0.2,0-0.3,0l-9.3-1.3L66,31.8c3.4,4.1,5.5,9.5,5.5,15.2  c0,13.2-10.8,24-24,24s-24-10.8-24-24c0-13.2,10.8-24,24-24c6,0,11.5,2.2,15.7,5.9l2-2L64,18.4c-0.1-0.4,0-0.7,0.2-1.1  C59.3,14.6,53.6,13,47.5,13c-18.7,0-34,15.2-34,34s15.2,34,34,34s34-15.2,34-34c0-5.6-1.4-10.9-3.8-15.5  C77.6,31.5,77.5,31.5,77.3,31.5z M50.2,41.6c-0.8-0.4-1.7-0.6-2.7-0.6c-3.3,0-6,2.7-6,6s2.7,6,6,6s6-2.7,6-6c0-0.9-0.2-1.7-0.6-2.5  l-4,3.9C48.5,48.8,48,49,47.5,49c-0.5,0-1-0.2-1.4-0.6c-0.8-0.8-0.8-2.1,0-2.8L50.2,41.6z M85.9,9.6c-0.8-0.8-2-0.8-2.8,0l-4.4,4.3  l0.4,2.6l2.4,0.3l4.4-4.3C86.7,11.7,86.7,10.4,85.9,9.6z M75.4,18.4l-0.8-5.9l-6.4,6.4l1.1,7.4l7.4,1.1L83,21l-6-0.9  C76.2,20,75.5,19.3,75.4,18.4z" id="svg_1" class="" fill-opacity="1" fill="#e11779"/></g></svg>